<?xml version="1.0" encoding="UTF-8"?>
<svg version="1.1" xmlns="http://www.w3.org/2000/svg" width="1219" height="593">
<path d="M0 0 C402.27 0 804.54 0 1219 0 C1219 195.69 1219 391.38 1219 593 C816.73 593 414.46 593 0 593 C0 397.31 0 201.62 0 0 Z " fill="#808080" transform="translate(0,0)"/>
<path d="M0 0 C402.27 0 804.54 0 1219 0 C1219 18.48 1219 36.96 1219 56 C816.73 56 414.46 56 0 56 C0 37.52 0 19.04 0 0 Z " fill="#22252A" transform="translate(0,0)"/>
<path d="M0 0 C2.875 0.3125 2.875 0.3125 6 1 C6.66 1.99 7.32 2.98 8 4 C9.99422795 4.36628677 11.99453311 4.70131344 14 5 C15.4807848 7.9615696 15.35314037 10.83506295 15.5625 14.125 C15.68818359 16.04699219 15.68818359 16.04699219 15.81640625 18.0078125 C15.87699219 18.99523437 15.93757812 19.98265625 16 21 C16.66 20.34 17.32 19.68 18 19 C20.5 18.75 20.5 18.75 23 19 C23.66 19.66 24.32 20.32 25 21 C24.71935017 25.50910726 23.49850137 28.2370942 20.8125 31.8125 C18.38106048 35.10238654 16.09978744 38.40275535 13.9375 41.875 C11.40464642 45.64095335 9.23397901 48.09055849 5 50 C0.1129912 50.93085882 -3.69529198 50.60486307 -7.875 47.8125 C-11.77509941 44.84503305 -13.68957169 41.42265807 -14.73046875 36.65234375 C-17.38482024 15.07723036 -17.38482024 15.07723036 -14 10 C-12.68 10 -11.36 10 -10 10 C-9.67 8.35 -9.34 6.7 -9 5 C-5.98968256 4.06576355 -5.13349732 3.95550089 -2 5 C-1.34 3.35 -0.68 1.7 0 0 Z " fill="#FBC43C" transform="translate(606,304)"/>
<path d="M0 0 C2.5625 0.25 2.5625 0.25 5.5625 2.25 C5.8925 1.92 6.2225 1.59 6.5625 1.25 C9.5 1.0625 9.5 1.0625 12.5625 1.25 C15.37796358 4.06546358 15.02318382 6.90389226 15.1875 10.6875 C15.22254639 11.40671631 15.25759277 12.12593262 15.29370117 12.86694336 C15.36059195 14.31829507 15.42241093 15.76988996 15.47900391 17.22167969 C15.55158091 18.98474901 15.65401504 20.74654001 15.76171875 22.5078125 C15.99945584 28.39385486 15.62499438 32.76845176 11.5625 37.25 C7.02713378 41.83200237 2.39902549 42.67844498 -3.9375 43 C-10.19499475 42.79412031 -13.62970512 41.71750077 -18.01953125 37.26953125 C-22.23929171 31.25956939 -21.77080542 25.12385953 -21.75 18.0625 C-21.76611328 16.95712891 -21.78222656 15.85175781 -21.79882812 14.71289062 C-21.79947266 13.65908203 -21.80011719 12.60527344 -21.80078125 11.51953125 C-21.80376221 10.55635986 -21.80674316 9.59318848 -21.80981445 8.60083008 C-21.68695068 7.82505615 -21.56408691 7.04928223 -21.4375 6.25 C-18.12454675 4.0413645 -17.21296697 4.25 -13.4375 4.25 C-12.7775 3.59 -12.1175 2.93 -11.4375 2.25 C-8.9375 2.125 -8.9375 2.125 -6.4375 2.25 C-5.7775 2.25 -5.1175 2.25 -4.4375 2.25 C-2.4375 0.25 -2.4375 0.25 0 0 Z " fill="#FDC63C" transform="translate(494.4375,309.75)"/>
<path d="M0 0 C2.5625 0.375 2.5625 0.375 4.1171875 2.0703125 C5.68244529 4.56626411 6.46689157 6.79089328 7.25 9.625 C7.50136719 10.51703125 7.75273438 11.4090625 8.01171875 12.328125 C8.19347656 13.00359375 8.37523437 13.6790625 8.5625 14.375 C8.76746094 13.67632812 8.97242188 12.97765625 9.18359375 12.2578125 C9.45300781 11.34773438 9.72242188 10.43765625 10 9.5 C10.26683594 8.59507812 10.53367187 7.69015625 10.80859375 6.7578125 C11.5625 4.375 11.5625 4.375 12.5625 2.375 C15.4375 2.25 15.4375 2.25 18.5625 2.375 C19.2225 3.035 19.8825 3.695 20.5625 4.375 C20.5324707 6.5612793 20.5324707 6.5612793 20.17578125 9.26171875 C19.72541348 13.30447836 19.51006406 17.20231446 19.60546875 21.26953125 C19.63737305 22.73229492 19.63737305 22.73229492 19.66992188 24.22460938 C19.72384418 26.21973462 19.78917114 28.21458052 19.86523438 30.20898438 C19.97161695 36.13094766 19.72363867 39.7735292 15.5625 44.375 C10.95618841 48.13648589 5.71576942 49.02584062 -0.109375 48.7578125 C-5.03421242 47.9480238 -7.62586441 45.36699905 -10.6875 41.625 C-14.62176793 34.31850241 -15.29541014 26.5756116 -14.4375 18.375 C-11.20164967 15.13914967 -6.81652513 14.38554426 -2.4375 13.375 C-2.9325 12.323125 -2.9325 12.323125 -3.4375 11.25 C-4.54454461 8.06724674 -4.73498557 5.72171266 -4.4375 2.375 C-2.4375 0.375 -2.4375 0.375 0 0 Z " fill="#FCC53C" transform="translate(724.4375,304.625)"/>
<path d="M0 0 C1.24136719 -0.020625 2.48273437 -0.04125 3.76171875 -0.0625 C4.95925781 -0.06765625 6.15679688 -0.0728125 7.390625 -0.078125 C8.48922852 -0.0874707 9.58783203 -0.09681641 10.71972656 -0.10644531 C14.16293184 0.29857239 15.98912627 1.18388362 18.75 3.25 C21.23386059 6.97579089 21.1304212 8.83711402 20.75 13.25 C19.05101531 17.07271555 17.61358106 18.74332372 13.75 20.25 C9.28303525 20.72968176 4.80256831 20.66635368 0.3125 20.6875 C-0.91533203 20.72037109 -2.14316406 20.75324219 -3.40820312 20.78710938 C-13.46712002 20.84734241 -13.46712002 20.84734241 -16.53515625 17.84765625 C-19.27461634 13.69790463 -19.76251817 11.28976202 -19.25 6.25 C-16.8125 3.375 -16.8125 3.375 -14.25 1.25 C-11.55717281 -1.44282719 -3.62375698 0.0148667 0 0 Z " fill="#0E6DFA" transform="translate(1020.25,9.75)"/>
<path d="M0 0 C2.5625 0.25 2.5625 0.25 5.5625 2.25 C6.2225 1.92 6.8825 1.59 7.5625 1.25 C7.2325 4.88 6.9025 8.51 6.5625 12.25 C7.2225 12.25 7.8825 12.25 8.5625 12.25 C8.5625 12.91 8.5625 13.57 8.5625 14.25 C5.9225 14.58 3.2825 14.91 0.5625 15.25 C0.5625 16.9 0.5625 18.55 0.5625 20.25 C1.17738281 20.35957031 1.79226563 20.46914063 2.42578125 20.58203125 C3.63814453 20.81986328 3.63814453 20.81986328 4.875 21.0625 C5.67550781 21.21332031 6.47601563 21.36414063 7.30078125 21.51953125 C9.83752952 22.33882646 10.97592017 23.12064287 12.5625 25.25 C12.25 27.9375 12.25 27.9375 11.5625 30.25 C10.5725 30.25 9.5825 30.25 8.5625 30.25 C7.9025 28.6 7.2425 26.95 6.5625 25.25 C-1.24551031 25.5018713 -6.02878959 27.87495135 -12.4375 32.25 C-10.64703589 28.11281109 -8.27652629 26.58679861 -4.4375 24.25 C-5.41332031 24.28480469 -6.38914062 24.31960938 -7.39453125 24.35546875 C-9.30298828 24.39607422 -9.30298828 24.39607422 -11.25 24.4375 C-13.14685547 24.48970703 -13.14685547 24.48970703 -15.08203125 24.54296875 C-18.4375 24.25 -18.4375 24.25 -20.36328125 23.2109375 C-22.03845488 20.15298418 -21.87029097 17.08111432 -21.8125 13.6875 C-21.82410156 13.00236328 -21.83570313 12.31722656 -21.84765625 11.61132812 C-21.8359375 9.62109375 -21.8359375 9.62109375 -21.4375 6.25 C-18.12454675 4.0413645 -17.21296697 4.25 -13.4375 4.25 C-12.7775 3.59 -12.1175 2.93 -11.4375 2.25 C-8.9375 2.125 -8.9375 2.125 -6.4375 2.25 C-5.7775 2.25 -5.1175 2.25 -4.4375 2.25 C-2.4375 0.25 -2.4375 0.25 0 0 Z " fill="#D98305" transform="translate(494.4375,309.75)"/>
<path d="M0 0 C1.98 0 3.96 0 6 0 C6.33 0.66 6.66 1.32 7 2 C7.99 1.34 8.98 0.68 10 0 C14.71186325 -0.53198456 16.89366112 -0.64536434 21 1.75 C24.04146242 6.69237643 23.84801285 11.34658098 23 17 C21.70959639 20.1929987 20.15815533 22.42092234 17 24 C15.125 24.16796875 15.125 24.16796875 13 24.1875 C11.948125 24.20876953 11.948125 24.20876953 10.875 24.23046875 C9 24 9 24 7 22 C6.67 26.29 6.34 30.58 6 35 C4.02 35 2.04 35 0 35 C0 23.45 0 11.9 0 0 Z " fill="#EFF7F7" transform="translate(909,116)"/>
<path d="M0 0 C14.92857143 0 14.92857143 0 19 3 C22.63767637 6.9612197 22.44072568 10.19386425 22.2890625 15.37109375 C21.8090705 19.7364264 20.23133334 21.92258332 17 24.75 C11.23244647 28.35472096 7.87725194 27 0 27 C0 18.09 0 9.18 0 0 Z " fill="#F9F9F3" transform="translate(554,468)"/>
<path d="M0 0 C15 0 15 0 21 4 C22.5992715 7.198543 22.36127908 10.52101629 22 14 C20.59779653 17.50550868 19.40576082 18.73256673 16.25 20.8125 C12.62789655 22.13596088 9.82678568 22.22960714 6 22 C6 25.63 6 29.26 6 33 C4.02 33 2.04 33 0 33 C0 22.11 0 11.22 0 0 Z " fill="#F7F8F6" transform="translate(233,107)"/>
<path d="M0 0 C4.18531174 1.72871572 6.23950002 3.83039478 8 8 C8.54333853 12.89004676 8.52109104 14.99503871 6.25 19.375 C3.65375621 22.40395108 1.78318375 23.75437362 -2.18359375 24.30078125 C-6.92182782 24.32541678 -10.22693694 24.20138684 -14 21 C-16.7083194 16.56296609 -16.80384618 12.05388437 -16 7 C-12.24492854 0.03427265 -7.29151693 -0.69503194 0 0 Z " fill="#F8F8F5" transform="translate(856,116)"/>
<path d="M0 0 C1.98 0 3.96 0 6 0 C7.32 5.28 8.64 10.56 10 16 C12.43298015 13.56701985 12.7227259 11.87323246 13.5625 8.5625 C14.30662861 5.66695291 15.05424888 2.83725335 16 0 C17.65 0 19.3 0 21 0 C23.08135307 5.29798964 24.71291613 10.45563871 26 16 C27.80304155 10.69905784 29.50723624 5.39691512 31 0 C32.65 0 34.3 0 36 0 C35.19275979 5.53143011 33.85871703 10.89704214 32.5 16.3125 C32.27441406 17.23095703 32.04882812 18.14941406 31.81640625 19.09570312 C31.59855469 19.96775391 31.38070312 20.83980469 31.15625 21.73828125 C30.95837891 22.53274658 30.76050781 23.32721191 30.55664062 24.14575195 C30 26 30 26 29 27 C27.33382885 27.04063832 25.66611905 27.042721 24 27 C21.80236996 22.30506309 20.41336612 17.91128078 19.4296875 12.8203125 C19.16627189 10.99102376 19.16627189 10.99102376 18 10 C17.72285156 11.14339844 17.44570313 12.28679687 17.16015625 13.46484375 C16.79445622 14.95577465 16.42856071 16.44665761 16.0625 17.9375 C15.88009766 18.69224609 15.69769531 19.44699219 15.50976562 20.22460938 C14.11328125 25.88671875 14.11328125 25.88671875 13 27 C11.02 27 9.04 27 7 27 C4.69 18.09 2.38 9.18 0 0 Z " fill="#F5F6F4" transform="translate(553,412)"/>
<path d="M0 0 C1.65 0 3.3 0 5 0 C5.33 0.66 5.66 1.32 6 2 C6.99 1.34 7.98 0.68 9 0 C12.37052101 -0.29308878 14.55199898 -0.18753531 17.6875 1.125 C18.450625 1.41375 19.21375 1.7025 20 2 C20.99 1.34 21.98 0.68 23 0 C26.67400407 -0.40080044 29.02624073 -0.61010758 32.20703125 1.3828125 C35.00087406 5.46097085 34.4253427 9.4348196 34.25 14.25 C34.23195313 15.18585938 34.21390625 16.12171875 34.1953125 17.0859375 C34.14825673 19.39167015 34.08253713 21.69530945 34 24 C32.35 24 30.7 24 29 24 C28.95101562 22.79601562 28.90203125 21.59203125 28.8515625 20.3515625 C28.77653657 18.77601802 28.70098867 17.20049834 28.625 15.625 C28.5940625 14.8309375 28.563125 14.036875 28.53125 13.21875 C28.48183579 8.63332625 28.48183579 8.63332625 26 5 C23.21762345 5.40528901 23.21762345 5.40528901 21 7 C20.76298761 9.85877909 20.57780818 12.69883297 20.4375 15.5625 C20.39431641 16.36880859 20.35113281 17.17511719 20.30664062 18.00585938 C20.20024738 20.00368805 20.09959112 22.0018207 20 24 C18.02 24 16.04 24 14 24 C13.67 18.06 13.34 12.12 13 6 C11.35 5.67 9.7 5.34 8 5 C5.51955685 8.72066472 5.55618827 11.86540474 5.375 16.1875 C5.33632813 16.93708984 5.29765625 17.68667969 5.2578125 18.45898438 C5.16371784 20.30559199 5.08077681 22.1527619 5 24 C3.35 24 1.7 24 0 24 C0 16.08 0 8.16 0 0 Z " fill="#FAFBFA" transform="translate(869,116)"/>
<path d="M0 0 C1.98 0.495 1.98 0.495 4 1 C4.66 4.63 5.32 8.26 6 12 C4.35 12 2.7 12 1 12 C1.99 13.485 1.99 13.485 3 15 C5.16874252 14.49396008 6.99967627 14.00016187 9 13 C10.99960012 12.960008 13.00047242 12.95653201 15 13 C15 12.34 15 11.68 15 11 C15.66 11 16.32 11 17 11 C17.12375 11.804375 17.2475 12.60875 17.375 13.4375 C17.58125 14.283125 17.7875 15.12875 18 16 C18.66 16.33 19.32 16.66 20 17 C18.02 19.97 16.04 22.94 14 26 C14.66 26 15.32 26 16 26 C16.2475 25.2575 16.495 24.515 16.75 23.75 C18.13577971 20.70128464 19.35068125 19.04376018 22 17 C24.75 16.75 24.75 16.75 27 17 C27.66 18.32 28.32 19.64 29 21 C29.99 21 30.98 21 32 21 C30.20609729 25.18577299 27.81239568 27.93388489 23.875 30.25 C18.17143839 31.73788564 12.98650305 31.95646443 7.625 29.375 C2.52143507 24.75748887 -0.10946129 19.81994838 -1 13 C-1.19420338 8.99144304 -1.27559636 5.00576106 -1 1 C-0.67 0.67 -0.34 0.34 0 0 Z " fill="#FCC53C" transform="translate(711,322)"/>
<path d="M0 0 C2.69756676 0.7777259 4.47585011 2.09260961 6.09375 4.3828125 C8.42124841 10.38474126 7.73884396 17.30719881 5.625 23.24609375 C3.9375 25.55859375 3.9375 25.55859375 0.9375 27.55859375 C-5.21265974 28.22952027 -5.21265974 28.22952027 -8.4375 25.68359375 C-12.61820952 20.21651207 -11.66410953 13.12733041 -11.0625 6.55859375 C-9.19573391 1.36828617 -5.33254063 -0.49487593 0 0 Z " fill="#F5F7F5" transform="translate(659.0625,411.44140625)"/>
<path d="M0 0 C3.63738721 2.74918801 4.86623953 4.239139 5.6640625 8.77734375 C5.67723171 10.1640611 5.66361399 11.55125782 5.625 12.9375 C5.65400391 13.97293945 5.65400391 13.97293945 5.68359375 15.02929688 C5.64725907 18.86260604 5.02562571 21.4700176 2.71484375 24.4609375 C0 27 0 27 -2.09765625 27.76171875 C-5.93318541 27.61683793 -7.6571723 27.33403724 -10.4375 24.625 C-13.55304529 19.39088392 -13.47400587 15.03733787 -13 9 C-11.13120566 1.70525797 -7.58809647 -0.91580475 0 0 Z " fill="#F5F8F6" transform="translate(657,523)"/>
<path d="M0 0 C3.63738721 2.74918801 4.86623953 4.239139 5.6640625 8.77734375 C5.67723171 10.1640611 5.66361399 11.55125782 5.625 12.9375 C5.65400391 13.97293945 5.65400391 13.97293945 5.68359375 15.02929688 C5.64725907 18.86260604 5.02562571 21.4700176 2.71484375 24.4609375 C0 27 0 27 -2.09765625 27.76171875 C-5.93318541 27.61683793 -7.6571723 27.33403724 -10.4375 24.625 C-13.55304529 19.39088392 -13.47400587 15.03733787 -13 9 C-11.13120566 1.70525797 -7.58809647 -0.91580475 0 0 Z " fill="#F5F8F6" transform="translate(663,468)"/>
<path d="M0 0 C13 0 13 0 18 4 C18.51063336 7.63826267 18.79581745 9.87862086 16.625 12.9375 C15 14 15 14 13 14 C13.5775 14.85464844 14.155 15.70929688 14.75 16.58984375 C15.50012058 17.70564811 16.25011404 18.82153795 17 19.9375 C17.3815625 20.50146484 17.763125 21.06542969 18.15625 21.64648438 C21 25.88671875 21 25.88671875 21 27 C18.375 27.5625 18.375 27.5625 15 27 C13.21676192 24.83651262 11.86475866 22.60677389 10.4921875 20.1640625 C8.96874431 17.58230557 8.96874431 17.58230557 5 16 C5 19.63 5 23.26 5 27 C3.35 27 1.7 27 0 27 C0 18.09 0 9.18 0 0 Z " fill="#F8F8F5" transform="translate(557,195)"/>
<path d="M0 0 C3.9738217 2.33246057 5.80747017 4.55511608 7 9 C7 10.65 7 12.3 7 14 C1.72 14 -3.56 14 -9 14 C-8.34 15.32 -7.68 16.64 -7 18 C-2.71249148 19.05165303 0.74378709 19.16078534 5 18 C4.625 20.4375 4.625 20.4375 4 23 C0.27287842 24.86356079 -3.9420732 24.56549975 -8 24 C-11.62531608 22.1258346 -13.69121639 19.92635083 -15 16 C-15.5074473 12.19414525 -15.86096143 8.55165811 -13.953125 5.11328125 C-9.86811526 0.15119589 -6.29534806 -0.86999052 0 0 Z " fill="#F7F8F7" transform="translate(994,116)"/>
<path d="M0 0 C3.9738217 2.33246057 5.80747017 4.55511608 7 9 C7 10.65 7 12.3 7 14 C1.72 14 -3.56 14 -9 14 C-8.34 15.32 -7.68 16.64 -7 18 C-2.71249148 19.05165303 0.74378709 19.16078534 5 18 C4.625 20.4375 4.625 20.4375 4 23 C0.27287842 24.86356079 -3.9420732 24.56549975 -8 24 C-11.62531608 22.1258346 -13.69121639 19.92635083 -15 16 C-15.5074473 12.19414525 -15.86096143 8.55165811 -13.953125 5.11328125 C-9.86811526 0.15119589 -6.29534806 -0.86999052 0 0 Z " fill="#F7F8F7" transform="translate(332,116)"/>
<path d="M0 0 C0.85464844 -0.01675781 1.70929688 -0.03351563 2.58984375 -0.05078125 C5.62329538 0.39489174 6.85168143 1.20473173 9.0625 3.3125 C9.51660156 5.58081055 9.51660156 5.58081055 9.453125 8.19921875 C9.43378906 9.6059082 9.43378906 9.6059082 9.4140625 11.04101562 C9.38054687 12.01748047 9.34703125 12.99394531 9.3125 14 C9.29445313 14.98806641 9.27640625 15.97613281 9.2578125 16.99414062 C9.21065447 19.43456842 9.14486042 21.87304769 9.0625 24.3125 C7.4125 24.3125 5.7625 24.3125 4.0625 24.3125 C3.7325 23.6525 3.4025 22.9925 3.0625 22.3125 C2.4025 22.9725 1.7425 23.6325 1.0625 24.3125 C-5.89769496 24.86489643 -5.89769496 24.86489643 -8.9375 23.25 C-10.54606522 20.13340489 -10.35963381 17.74987531 -9.9375 14.3125 C-8.5625 11.9375 -8.5625 11.9375 -5.9375 10.3125 C-2.60967369 9.69700861 0.68341591 9.44147268 4.0625 9.3125 C3.4025 7.9925 2.7425 6.6725 2.0625 5.3125 C-1.88477588 5.13307837 -4.5355513 5.21899311 -7.9375 7.3125 C-8.125 4.9375 -8.125 4.9375 -7.9375 2.3125 C-4.73125113 0.17500075 -3.71291897 0.01675001 0 0 Z " fill="#F6F9F9" transform="translate(279.9375,115.6875)"/>
<path d="M0 0 C0.96808594 -0.00257812 1.93617188 -0.00515625 2.93359375 -0.0078125 C5.5625 0.125 5.5625 0.125 8.5625 1.125 C8.5625 3.105 8.5625 5.085 8.5625 7.125 C8.0675 6.96 7.5725 6.795 7.0625 6.625 C1.9016719 5.59283438 -1.88958598 5.16990412 -6.375 7.9375 C-9.58050241 11.33727528 -9.77269928 14.53485808 -9.73046875 19.12109375 C-9.27009178 22.27007222 -7.66849654 23.959621 -5.4375 26.125 C-1.69775568 27.99487216 3.03040828 27.43141834 7.0625 26.625 C7.5575 26.46 8.0525 26.295 8.5625 26.125 C8.75 28.5 8.75 28.5 8.5625 31.125 C3.87435997 34.25042669 -0.95118439 33.69179817 -6.4375 33.125 C-11.37702708 31.00805982 -13.62309351 28.05738535 -15.74609375 23.26953125 C-17.323132 18.37803974 -16.81636887 14.36684797 -15.3125 9.4375 C-11.73569756 3.11848235 -7.28243323 -0.01934245 0 0 Z " fill="#F7F9F8" transform="translate(827.4375,106.875)"/>
<path d="M0 0 C1.98 0 3.96 0 6 0 C7.65 4.95 9.3 9.9 11 15 C12.90637595 11.1872481 14.43157331 8.07219818 15.6875 4.125 C15.93886719 3.34382813 16.19023437 2.56265625 16.44921875 1.7578125 C16.63097656 1.17773438 16.81273437 0.59765625 17 0 C18.98 0 20.96 0 23 0 C21.19905767 6.61809703 18.90349758 12.87105769 16.1875 19.16796875 C15.17911136 21.57284299 14.31959141 23.96475547 13.5 26.4375 C11.83535163 30.39103987 10.47096268 32.47566351 7 35 C3.1875 35.3125 3.1875 35.3125 0 35 C0 33.35 0 31.7 0 30 C1.4540625 29.5359375 1.4540625 29.5359375 2.9375 29.0625 C5.84065792 28.30476658 5.84065792 28.30476658 7 27 C7.64483922 21.29496414 5.66015324 16.95433193 3.5 11.8125 C2.83923201 10.21670703 2.18278498 8.61911611 1.53125 7.01953125 C1.23798828 6.31932861 0.94472656 5.61912598 0.64257812 4.89770508 C0 3 0 3 0 0 Z " fill="#F5F6F4" transform="translate(293,116)"/>
<path d="M0 0 C3.0432531 1.9874306 4.62073803 3.32041127 5.4375 6.9375 C5.67021319 10.77726765 5.23162678 12.63711804 3.125 15.9375 C0.22627065 18.75097261 -0.62217779 18.96221778 -4.75 19.375 C-7.91193254 19.3173005 -9.90884475 18.83848634 -12.5 17 C-15.30551395 13.63338326 -15.78932384 12.17318276 -15.46875 7.93359375 C-14.73623313 4.91196165 -13.19716904 3.13254642 -11 1 C-7.51069104 -0.74465448 -3.80713023 -0.56450552 0 0 Z " fill="#F3F6F5" transform="translate(591,531)"/>
<path d="M0 0 C1.65 0 3.3 0 5 0 C5.04898438 1.12019531 5.09796875 2.24039063 5.1484375 3.39453125 C5.22347856 4.86721203 5.29902582 6.33986707 5.375 7.8125 C5.4059375 8.55048828 5.436875 9.28847656 5.46875 10.04882812 C5.67346148 13.81893115 5.86433827 15.79650741 8 19 C11.29075996 18.62095792 11.29075996 18.62095792 14 17 C14.23701239 14.14122091 14.42219182 11.30116703 14.5625 8.4375 C14.60568359 7.63119141 14.64886719 6.82488281 14.69335938 5.99414062 C14.79975262 3.99631195 14.90040888 1.9981793 15 0 C16.98 0 18.96 0 21 0 C21 7.92 21 15.84 21 24 C19.02 24 17.04 24 15 24 C14.67 23.34 14.34 22.68 14 22 C13.34 22.66 12.68 23.32 12 24 C6.36005089 24.63676845 6.36005089 24.63676845 4 24 C1.47129421 21.84134872 0.16422158 20.14661396 -0.31396484 16.80786133 C-0.39373766 14.25589349 -0.34892696 11.73867423 -0.25 9.1875 C-0.23195313 8.30384766 -0.21390625 7.42019531 -0.1953125 6.50976562 C-0.14838513 4.33937457 -0.07664731 2.16954481 0 0 Z " fill="#F9FAF7" transform="translate(937,116)"/>
<path d="M0 0 C1.65 0 3.3 0 5 0 C6.32 3.3 7.64 6.6 9 10 C9.99 6.7 10.98 3.4 12 0 C13.65 0 15.3 0 17 0 C17.20496094 0.62648438 17.40992188 1.25296875 17.62109375 1.8984375 C17.89050781 2.71570313 18.15992188 3.53296875 18.4375 4.375 C18.70433594 5.18710937 18.97117187 5.99921875 19.24609375 6.8359375 C19.95179729 9.01031799 19.95179729 9.01031799 21 11 C21.66 7.7 22.32 4.4 23 1 C24.65 0.67 26.3 0.34 28 0 C26.83795007 6.54849313 25.26616615 12.74538144 23 19 C21.35 19 19.7 19 18 19 C17.79503906 18.28972656 17.59007812 17.57945312 17.37890625 16.84765625 C17.10949219 15.92855469 16.84007812 15.00945312 16.5625 14.0625 C16.29566406 13.14597656 16.02882813 12.22945313 15.75390625 11.28515625 C15.20973949 9.0597507 15.20973949 9.0597507 14 8 C13.01 11.63 12.02 15.26 11 19 C9.02 19 7.04 19 5 19 C3.35 12.73 1.7 6.46 0 0 Z " fill="#F2F5F3" transform="translate(611,476)"/>
<path d="M0 0 C2.9375 1.5625 2.9375 1.5625 5 4 C5.3125 7.75 5.3125 7.75 5 11 C0.71 11 -3.58 11 -8 11 C-7.01 12.485 -7.01 12.485 -6 14 C-3.56306689 14.36416047 -3.56306689 14.36416047 -0.875 14.1875 C0.49011719 14.14689453 0.49011719 14.14689453 1.8828125 14.10546875 C2.58148437 14.07066406 3.28015625 14.03585938 4 14 C4 15.32 4 16.64 4 18 C0.25353331 19.87323335 -3.93024253 19.6644502 -8 19 C-10.7810037 17.28105732 -11.35450122 16.01674776 -13 13 C-13.68359886 8.67054058 -13.5279283 6.80949006 -11.125 3.125 C-7.54668265 -0.45331735 -4.99886778 -0.42363286 0 0 Z " fill="#F3F6F5" transform="translate(590,203)"/>
<path d="M0 0 C2.4375 1.5625 2.4375 1.5625 4 4 C4.75 7.75 4.75 7.75 5 11 C0.71 11 -3.58 11 -8 11 C-7.67 11.99 -7.34 12.98 -7 14 C-3.7 14 -0.4 14 3 14 C3 15.32 3 16.64 3 18 C-0.49202465 19.74601232 -4.18982279 19.55838804 -8 19 C-11.0625 17.0625 -11.0625 17.0625 -13 14 C-13.69144269 10.83993549 -13.69701524 8.15942156 -13 5 C-9.39690234 -0.51724329 -6.13515775 -0.87645111 0 0 Z " fill="#F6F7F5" transform="translate(628,531)"/>
<path d="M0 0 C0.78246094 -0.02578125 1.56492187 -0.0515625 2.37109375 -0.078125 C4.5625 0.25 4.5625 0.25 6.3359375 1.25390625 C8.29726974 4.44575585 7.87339277 7.81481495 7.75 11.4375 C7.72969727 12.56188477 7.72969727 12.56188477 7.70898438 13.70898438 C7.67368539 15.55629767 7.61987917 17.40324066 7.5625 19.25 C5.22916667 19.25 2.89583333 19.25 0.5625 19.25 C-0.5925 19.29125 -1.7475 19.3325 -2.9375 19.375 C-6.4375 19.25 -6.4375 19.25 -8.4375 17.25 C-8.875 13.8125 -8.875 13.8125 -8.4375 10.25 C-5.62854748 7.68889623 -3.91343344 7.27693963 -0.125 7.0625 C0.761875 7.124375 1.64875 7.18625 2.5625 7.25 C2.5625 6.26 2.5625 5.27 2.5625 4.25 C-1.8925 4.745 -1.8925 4.745 -6.4375 5.25 C-6.4375 3.93 -6.4375 2.61 -6.4375 1.25 C-4.11063547 0.08656773 -2.59028587 0.05104012 0 0 Z " fill="#F3F6F5" transform="translate(601.4375,475.75)"/>
<path d="M0 0 C0 2.31 0 4.62 0 7 C1.98 7 3.96 7 6 7 C6 8.32 6 9.64 6 11 C4.02 11 2.04 11 0 11 C0.33 15.62 0.66 20.24 1 25 C2.65 25.33 4.3 25.66 6 26 C6 27.65 6 29.3 6 31 C-1.52982573 31.3703193 -1.52982573 31.3703193 -3.609375 29.73242188 C-5.30191723 27.62387558 -5.35318217 26.65774276 -5.29296875 23.98828125 C-5.28330078 23.23095703 -5.27363281 22.47363281 -5.26367188 21.69335938 C-5.23853516 20.90767578 -5.21339844 20.12199219 -5.1875 19.3125 C-5.16719727 18.11657227 -5.16719727 18.11657227 -5.14648438 16.89648438 C-5.11117089 14.93070033 -5.05736447 12.96526418 -5 11 C-6.32 11 -7.64 11 -9 11 C-9 9.68 -9 8.36 -9 7 C-7.68 7 -6.36 7 -5 7 C-5 5.02 -5 3.04 -5 1 C-3 0 -3 0 0 0 Z " fill="#FAFBF7" transform="translate(971,109)"/>
<path d="M0 0 C2.1385485 2.1385485 2.42655063 3.13275314 3 6 C3.309375 5.195625 3.61875 4.39125 3.9375 3.5625 C5 1 5 1 6 0 C7.99958364 -0.04080783 10.00045254 -0.04254356 12 0 C11.67 0.99 11.34 1.98 11 3 C9.68 2.67 8.36 2.34 7 2 C7 2.99 7 3.98 7 5 C7.804375 5.2475 8.60875 5.495 9.4375 5.75 C12 7 12 7 12.9375 9 C12.958125 9.66 12.97875 10.32 13 11 C11 13 11 13 7.375 13.125 C6.26125 13.08375 5.1475 13.0425 4 13 C3.67 12.34 3.34 11.68 3 11 C2.01 11.66 1.02 12.32 0 13 C-3.0875593 13.32162076 -5.14015561 13.48724515 -7.875 11.9375 C-9.64273274 8.8930714 -9.36823916 6.4368988 -9 3 C-6.8388936 -0.72190547 -4.01418597 -0.42704106 0 0 Z " fill="#2C2F32" transform="translate(63,18)"/>
<path d="M0 0 C1.65 0 3.3 0 5 0 C5.33 4.62 5.66 9.24 6 14 C7.65 14 9.3 14 11 14 C12.87824891 12.12175109 12.39102397 8.96064724 12.5625 6.4375 C12.64628906 5.23996094 12.73007812 4.04242188 12.81640625 2.80859375 C12.87699219 1.88175781 12.93757812 0.95492187 13 0 C14.65 0 16.3 0 18 0 C18 6.27 18 12.54 18 19 C15.33333333 19 12.66666667 19 10 19 C9.030625 19.0825 8.06125 19.165 7.0625 19.25 C4 19 4 19 1.82421875 17.46875 C-0.6479052 14.12317754 -0.44573153 11.23238387 -0.25 7.25 C-0.23195313 6.55261719 -0.21390625 5.85523438 -0.1953125 5.13671875 C-0.14838554 3.42388461 -0.07664605 1.71176176 0 0 Z " fill="#F4F6EF" transform="translate(614,203)"/>
<path d="M0 0 C1.98 0 3.96 0 6 0 C6 11.55 6 23.1 6 35 C4.02 35 2.04 35 0 35 C0 23.45 0 11.9 0 0 Z " fill="#F6F8F6" transform="translate(259,105)"/>
<path d="M0 0 C7 0 7 0 9.9375 1.375 C12.66185507 4.842361 12.52121245 7.26057922 12.46875 11.5625 C11.87068334 14.67244664 11.42497399 15.91079164 9 18 C6.03 18.33 3.06 18.66 0 19 C0 12.73 0 6.46 0 0 Z " fill="#808183" transform="translate(559,472)"/>
<path d="M0 0 C2.33333333 0 4.66666667 0 7 0 C8.134375 -0.061875 9.26875 -0.12375 10.4375 -0.1875 C14 0 14 0 15.7109375 1 C17.75832353 4.17655045 17.311701 7.54108613 17.1875 11.1875 C17.16719727 12.31188477 17.16719727 12.31188477 17.14648438 13.45898438 C17.11118539 15.30629767 17.05737917 17.15324066 17 19 C15.35 19 13.7 19 12 19 C11.67 14.38 11.34 9.76 11 5 C9.35 5 7.7 5 6 5 C4.12175109 6.87824891 4.60897603 10.03935276 4.4375 12.5625 C4.31181641 14.35880859 4.31181641 14.35880859 4.18359375 16.19140625 C4.12300781 17.11824219 4.06242188 18.04507812 4 19 C2.68 19 1.36 19 0 19 C0 12.73 0 6.46 0 0 Z " fill="#F3F4F2" transform="translate(602,420)"/>
<path d="M0 0 C1.98 0 3.96 0 6 0 C6.33 0.66 6.66 1.32 7 2 C7.66 1.34 8.32 0.68 9 0 C11.625 -0.125 11.625 -0.125 14 0 C14 1.98 14 3.96 14 6 C13.21625 5.95875 12.4325 5.9175 11.625 5.875 C8.83883881 5.71271266 8.83883881 5.71271266 7 8 C6.6936141 10.73434962 6.4886664 13.38279821 6.375 16.125 C6.33632813 16.87910156 6.29765625 17.63320312 6.2578125 18.41015625 C6.16348969 20.27303184 6.08065338 22.13648255 6 24 C4.02 24 2.04 24 0 24 C0 16.08 0 8.16 0 0 Z " fill="#F8F9F5" transform="translate(1005,116)"/>
<path d="M0 0 C1.98 0 3.96 0 6 0 C6.33 0.66 6.66 1.32 7 2 C7.66 1.34 8.32 0.68 9 0 C11.625 -0.125 11.625 -0.125 14 0 C14 1.98 14 3.96 14 6 C13.21625 5.95875 12.4325 5.9175 11.625 5.875 C8.83883881 5.71271266 8.83883881 5.71271266 7 8 C6.6936141 10.73434962 6.4886664 13.38279821 6.375 16.125 C6.33632813 16.87910156 6.29765625 17.63320312 6.2578125 18.41015625 C6.16348969 20.27303184 6.08065338 22.13648255 6 24 C4.02 24 2.04 24 0 24 C0 16.08 0 8.16 0 0 Z " fill="#F8F9F5" transform="translate(343,116)"/>
<path d="M0 0 C1.21236328 0.04060547 1.21236328 0.04060547 2.44921875 0.08203125 C3.06410156 0.11683594 3.67898437 0.15164062 4.3125 0.1875 C4.39367951 2.60484542 4.45306926 5.01944949 4.5 7.4375 C4.53770508 8.46037109 4.53770508 8.46037109 4.57617188 9.50390625 C4.62145239 12.61316842 4.47756253 14.8615015 3.0625 17.65625 C0.01036593 20.32686731 -2.77864596 19.4438183 -6.6875 19.1875 C-6.3575 18.1975 -6.0275 17.2075 -5.6875 16.1875 C-3.7075 16.1875 -1.7275 16.1875 0.3125 16.1875 C0.3125 15.1975 0.3125 14.2075 0.3125 13.1875 C-0.821875 13.06375 -1.95625 12.94 -3.125 12.8125 C-4.8884375 12.503125 -4.8884375 12.503125 -6.6875 12.1875 C-8.21241998 9.13766004 -7.92312548 6.5451631 -7.6875 3.1875 C-5.45977034 0.07010194 -3.72070402 -0.16176974 0 0 Z " fill="#C8E3EB" transform="translate(12.6875,17.8125)"/>
<path d="M0 0 C0.90105469 0.02707031 1.80210937 0.05414062 2.73046875 0.08203125 C3.76107422 0.13423828 3.76107422 0.13423828 4.8125 0.1875 C4.8125 1.5075 4.8125 2.8275 4.8125 4.1875 C2.5025 4.1875 0.1925 4.1875 -2.1875 4.1875 C-2.5175 5.1775 -2.8475 6.1675 -3.1875 7.1875 C-2.07375 7.47625 -0.96 7.765 0.1875 8.0625 C3.8125 9.1875 3.8125 9.1875 5.8125 11.1875 C5.625 14.1875 5.625 14.1875 4.8125 17.1875 C1.60869983 19.32336678 0.79310033 19.41882175 -2.875 19.3125 C-3.68324219 19.29445313 -4.49148438 19.27640625 -5.32421875 19.2578125 C-5.93910156 19.23460937 -6.55398438 19.21140625 -7.1875 19.1875 C-7.5175 17.5375 -7.8475 15.8875 -8.1875 14.1875 C-5.2175 14.5175 -2.2475 14.8475 0.8125 15.1875 C-2.01384315 12.11019469 -2.01384315 12.11019469 -5.375 10.3125 C-8.1875 8.1875 -8.1875 8.1875 -8.75 5.625 C-7.57741964 0.54381842 -4.897257 -0.19080222 0 0 Z " fill="#F6F6F2" transform="translate(607.1875,530.8125)"/>
<path d="M0 0 C1.21236328 0.02707031 1.21236328 0.02707031 2.44921875 0.0546875 C3.37154297 0.08949219 3.37154297 0.08949219 4.3125 0.125 C4.3125 1.445 4.3125 2.765 4.3125 4.125 C1.6725 4.125 -0.9675 4.125 -3.6875 4.125 C-1.74063538 6.28818291 -0.0577828 7.49542188 2.5 9 C5.3125 11.125 5.3125 11.125 5.9375 13.6875 C5.3125 16.125 5.3125 16.125 3.875 17.9375 C0.06880517 19.70134638 -3.55928296 19.36316637 -7.6875 19.125 C-8.0175 17.475 -8.3475 15.825 -8.6875 14.125 C-6.0475 14.455 -3.4075 14.785 -0.6875 15.125 C-0.3575 14.135 -0.0275 13.145 0.3125 12.125 C-0.80125 11.856875 -1.915 11.58875 -3.0625 11.3125 C-6.6875 10.125 -6.6875 10.125 -8.6875 7.125 C-8.5 4.5625 -8.5 4.5625 -7.6875 2.125 C-4.48369983 -0.01086678 -3.66810033 -0.10632175 0 0 Z " fill="#F0F5F6" transform="translate(630.6875,419.875)"/>
<path d="M0 0 C1.21236328 0.02707031 1.21236328 0.02707031 2.44921875 0.0546875 C3.37154297 0.08949219 3.37154297 0.08949219 4.3125 0.125 C4.3125 1.445 4.3125 2.765 4.3125 4.125 C1.6725 4.125 -0.9675 4.125 -3.6875 4.125 C-1.74063538 6.28818291 -0.0577828 7.49542188 2.5 9 C5.3125 11.125 5.3125 11.125 5.9375 13.6875 C5.3125 16.125 5.3125 16.125 3.875 17.9375 C0.06880517 19.70134638 -3.55928296 19.36316637 -7.6875 19.125 C-8.0175 17.475 -8.3475 15.825 -8.6875 14.125 C-6.0475 14.455 -3.4075 14.785 -0.6875 15.125 C-0.3575 14.135 -0.0275 13.145 0.3125 12.125 C-0.80125 11.856875 -1.915 11.58875 -3.0625 11.3125 C-6.6875 10.125 -6.6875 10.125 -8.6875 7.125 C-8.5 4.5625 -8.5 4.5625 -7.6875 2.125 C-4.48369983 -0.01086678 -3.66810033 -0.10632175 0 0 Z " fill="#F0F5F6" transform="translate(605.6875,202.875)"/>
<path d="M0 0 C2.72414422 0.97789792 3.8856383 1.42469206 5.4375 3.875 C5.99795628 8.19851988 5.9161058 10.17204773 3.4375 13.8125 C2.7775 14.493125 2.1175 15.17375 1.4375 15.875 C-4.3125 15.125 -4.3125 15.125 -6.5625 12.875 C-6.8984375 10.59765625 -6.8984375 10.59765625 -6.9375 7.9375 C-6.96585938 7.06222656 -6.99421875 6.18695313 -7.0234375 5.28515625 C-6.5625 2.875 -6.5625 2.875 -4.69921875 1.05078125 C-2.5625 -0.125 -2.5625 -0.125 0 0 Z " fill="#858487" transform="translate(852.5625,120.125)"/>
<path d="M0 0 C1.32 0 2.64 0 4 0 C4 7.59 4 15.18 4 23 C7.63 23 11.26 23 15 23 C15 24.32 15 25.64 15 27 C10.05 27 5.1 27 0 27 C0 18.09 0 9.18 0 0 Z " fill="#FDFDFC" transform="translate(560,523)"/>
<path d="M0 0 C2.625 -0.1875 2.625 -0.1875 5 0 C6.92275982 3.24800861 7.29702176 5.74394754 7.3125 9.5 C7.32925781 10.4384375 7.34601562 11.376875 7.36328125 12.34375 C6.94768059 15.38255053 6.01958576 16.74062173 4 19 C1.5625 18.625 1.5625 18.625 -1 18 C-2.41693757 15.16612485 -2.1699013 12.71970627 -2.1875 9.5625 C-2.20167969 8.40878906 -2.21585938 7.25507812 -2.23046875 6.06640625 C-2 3 -2 3 0 0 Z " fill="#858487" transform="translate(651,527)"/>
<path d="M0 0 C2.625 -0.1875 2.625 -0.1875 5 0 C6.92275982 3.24800861 7.29702176 5.74394754 7.3125 9.5 C7.32925781 10.4384375 7.34601562 11.376875 7.36328125 12.34375 C6.94768059 15.38255053 6.01958576 16.74062173 4 19 C1.5625 18.625 1.5625 18.625 -1 18 C-2.41693757 15.16612485 -2.1699013 12.71970627 -2.1875 9.5625 C-2.20167969 8.40878906 -2.21585938 7.25507813 -2.23046875 6.06640625 C-2 3 -2 3 0 0 Z " fill="#858487" transform="translate(657,472)"/>
<path d="M0 0 C4.875 0.875 4.875 0.875 6 2 C6.12586907 4.2890608 6.17577971 6.58251118 6.1875 8.875 C6.20167969 10.13054687 6.21585938 11.38609375 6.23046875 12.6796875 C6 16 6 16 4 19 C1.625 18.75 1.625 18.75 -1 18 C-2.96476565 15.02267595 -3.29638086 12.52471945 -3.3125 9 C-3.32925781 8.154375 -3.34601562 7.30875 -3.36328125 6.4375 C-2.93244007 3.54669465 -1.90529726 2.17173725 0 0 Z " fill="#888584" transform="translate(655,416)"/>
<path d="M0 0 C2 1.6875 2 1.6875 3 4 C2.92897215 7.4803645 2.61415498 9.29485909 0.3125 11.9375 C-2.89943934 13.41325591 -4.66474802 13.06444212 -8 12 C-9.9375 10.3125 -9.9375 10.3125 -11 8 C-10.87230149 4.87138639 -10.44822217 2.77193818 -8.875 0.0625 C-5.73328713 -1.71780396 -3.37227112 -0.90328691 0 0 Z " fill="#F0F6FE" transform="translate(1035,14)"/>
<path d="M0 0 C2.375 0.875 2.375 0.875 4.375 2.875 C4.7109375 5.15234375 4.7109375 5.15234375 4.75 7.8125 C4.77835938 8.68777344 4.80671875 9.56304687 4.8359375 10.46484375 C4.375 12.875 4.375 12.875 2.515625 14.69921875 C0.375 15.875 0.375 15.875 -2.25 15.75 C-4.625 14.875 -4.625 14.875 -6.625 11.875 C-7.29063945 4.88578582 -7.29063945 4.88578582 -4.9375 1.3125 C-2.625 -0.125 -2.625 -0.125 0 0 Z " fill="#878484" transform="translate(921.625,120.125)"/>
<path d="M0 0 C1.258125 -0.04125 2.51625 -0.0825 3.8125 -0.125 C4.52019531 -0.14820313 5.22789062 -0.17140625 5.95703125 -0.1953125 C8 0 8 0 11 2 C11.3984375 4.05859375 11.3984375 4.05859375 11.375 6.4375 C11.38273437 7.21996094 11.39046875 8.00242187 11.3984375 8.80859375 C10.90451592 11.52516246 10.24551315 12.41552555 8 14 C5.27492202 14.39078556 2.76878044 14.13616953 0 14 C0 9.38 0 4.76 0 0 Z " fill="#E5ECE4" transform="translate(365,15)"/>
<path d="M0 0 C0.99 0 1.98 0 3 0 C3 1.98 3 3.96 3 6 C4.65 6 6.3 6 8 6 C8 6.99 8 7.98 8 9 C6.35 9 4.7 9 3 9 C3.33 12.63 3.66 16.26 4 20 C5.32 20.33 6.64 20.66 8 21 C8 22.32 8 23.64 8 25 C4.625 25.125 4.625 25.125 1 25 C-1 23 -1 23 -1.1953125 19.7421875 C-1.17210937 18.46601563 -1.14890625 17.18984375 -1.125 15.875 C-1.10695313 14.59367188 -1.08890625 13.31234375 -1.0703125 11.9921875 C-1.04710937 11.00476563 -1.02390625 10.01734375 -1 9 C-1.99 9 -2.98 9 -4 9 C-4 8.01 -4 7.02 -4 6 C-3.01 6 -2.02 6 -1 6 C-1.020625 5.195625 -1.04125 4.39125 -1.0625 3.5625 C-1 1 -1 1 0 0 Z " fill="#FAFBF9" transform="translate(649,197)"/>
<path d="M0 0 C6.70518586 -0.19818283 12.65176798 -0.30844801 19 2 C19 3.32 19 4.64 19 6 C18.41992188 6.23074219 17.83984375 6.46148437 17.2421875 6.69921875 C13.29596124 8.34673565 9.84472775 9.8961504 6.625 12.75 C4 15 4 15 1 15 C1.792311 9.86671748 5.09445564 8.12443548 9 5 C5.7 4.67 2.4 4.34 -1 4 C-0.67 2.68 -0.34 1.36 0 0 Z " fill="#D98204" transform="translate(599,329)"/>
<path d="M0 0 C4 0 8 0 12 0 C13.2684375 -0.0928125 13.2684375 -0.0928125 14.5625 -0.1875 C15.366875 -0.125625 16.17125 -0.06375 17 0 C19.20914 3.31371 19.22481553 4.3446021 19.125 8.1875 C19.10695313 9.08855469 19.08890625 9.98960938 19.0703125 10.91796875 C19.04710938 11.60503906 19.02390625 12.29210938 19 13 C18.01 13 17.02 13 16 13 C15.67 9.7 15.34 6.4 15 3 C14.01 3 13.02 3 12 3 C11.67 6.3 11.34 9.6 11 13 C10.01 13 9.02 13 8 13 C7.67 9.7 7.34 6.4 7 3 C6.01 3 5.02 3 4 3 C3.67 6.3 3.34 9.6 3 13 C2.01 13 1.02 13 0 13 C0 8.71 0 4.42 0 0 Z " fill="#DDE3DE" transform="translate(33,18)"/>
<path d="M0 0 C2.5 0.125 2.5 0.125 3.5 1.125 C3.57319621 3.82154854 3.59242537 6.49191458 3.5625 9.1875 C3.55798828 9.94611328 3.55347656 10.70472656 3.54882812 11.48632812 C3.5370068 13.36591871 3.51907078 15.24546899 3.5 17.125 C1.19 17.455 -1.12 17.785 -3.5 18.125 C-3.52684312 15.31243719 -3.54676188 12.50012759 -3.5625 9.6875 C-3.57087891 8.88505859 -3.57925781 8.08261719 -3.58789062 7.25585938 C-3.5965143 5.21204779 -3.5522815 3.16816098 -3.5 1.125 C-2.5 0.125 -2.5 0.125 0 0 Z " fill="#FDC63D" transform="translate(485.5,311.875)"/>
<path d="M0 0 C3.66666667 0 7.33333333 0 11 0 C11 1.65 11 3.3 11 5 C9.35 5.33 7.7 5.66 6 6 C5.67 10.29 5.34 14.58 5 19 C3.35 19 1.7 19 0 19 C0 12.73 0 6.46 0 0 Z " fill="#F4F7F7" transform="translate(580,476)"/>
<path d="M0 0 C1.32 0 2.64 0 4 0 C4 9.57 4 19.14 4 29 C2.68 29 1.36 29 0 29 C0 19.43 0 9.86 0 0 Z " fill="#FDFFFD" transform="translate(637,193)"/>
<path d="M0 0 C2.01822917 0.06510417 4.03645833 0.13020833 6.0546875 0.1953125 C6.10874872 2.13250628 6.14750775 4.07013171 6.1796875 6.0078125 C6.20289063 7.08675781 6.22609375 8.16570313 6.25 9.27734375 C6.0546875 12.1953125 6.0546875 12.1953125 4.0546875 15.1953125 C0.4296875 15.3828125 0.4296875 15.3828125 -2.9453125 15.1953125 C-2.9453125 14.5353125 -2.9453125 13.8753125 -2.9453125 13.1953125 C-0.9653125 12.8653125 1.0146875 12.5353125 3.0546875 12.1953125 C3.0546875 11.5353125 3.0546875 10.8753125 3.0546875 10.1953125 C2.2709375 10.2365625 1.4871875 10.2778125 0.6796875 10.3203125 C-1.9453125 10.1953125 -1.9453125 10.1953125 -3.9453125 8.1953125 C-4.1953125 5.1953125 -4.1953125 5.1953125 -3.9453125 2.1953125 C-1.9453125 0.1953125 -1.9453125 0.1953125 0 0 Z " fill="#E1E0D2" transform="translate(1133.9453125,17.8046875)"/>
<path d="M0 0 C6.0546875 -0.1953125 6.0546875 -0.1953125 8 0 C10 2 10 2 10.25 4.9375 C10 8 10 8 8 11 C6.0546875 11.51171875 6.0546875 11.51171875 3.875 11.6875 C1.956875 11.8421875 1.956875 11.8421875 0 12 C0 8.04 0 4.08 0 0 Z " fill="#808387" transform="translate(239,112)"/>
<path d="M0 0 C0 5.28 0 10.56 0 16 C-1.65 16 -3.3 16 -5 16 C-7.70078753 13.29921247 -7.29894358 11.75964828 -7.3125 8 C-7.32925781 6.9275 -7.34601563 5.855 -7.36328125 4.75 C-7.24339844 3.8425 -7.12351562 2.935 -7 2 C-4 0 -4 0 0 0 Z " fill="#FBC53E" transform="translate(480,314)"/>
<path d="M0 0 C0.66 0 1.32 0 2 0 C2.33 1.65 2.66 3.3 3 5 C3.78375 4.95875 4.5675 4.9175 5.375 4.875 C8 5 8 5 10 7 C9.42307692 13.57692308 9.42307692 13.57692308 8 15 C5.32941149 15.14115161 2.67567762 15.04247107 0 15 C0 10.05 0 5.1 0 0 Z " fill="#BEDDE6" transform="translate(1084,13)"/>
<path d="M0 0 C3.01510598 -0.3259574 4.46077366 -0.43138108 6.875 1.5 C8.56644129 5.25875841 7.73687626 7.98067496 7 12 C4.36 12.99 1.72 13.98 -1 15 C-1.02703381 13.06257659 -1.04641125 11.12504521 -1.0625 9.1875 C-1.07410156 8.10855469 -1.08570313 7.02960938 -1.09765625 5.91796875 C-1 3 -1 3 0 0 Z " fill="#FBC43D" transform="translate(492,310)"/>
<path d="M0 0 C3 0.25 3 0.25 5 2.25 C5.25 5.75 5.25 5.75 5 9.25 C3 11.25 3 11.25 0 11.5625 C-0.99 11.459375 -1.98 11.35625 -3 11.25 C-5.30163882 7.79754176 -5.34490322 6.30261287 -5 2.25 C-3 0.25 -3 0.25 0 0 Z " fill="#858282" transform="translate(586,534.75)"/>
<path d="M0 0 C2.875 -0.125 2.875 -0.125 6 0 C8 2 8 2 8.1953125 4.6015625 C8.17210937 5.59929688 8.14890625 6.59703125 8.125 7.625 C8.10695313 8.62789062 8.08890625 9.63078125 8.0703125 10.6640625 C8.03550781 11.82035156 8.03550781 11.82035156 8 13 C6.52093108 13.02689216 5.04172517 13.04634621 3.5625 13.0625 C2.32693359 13.07990234 2.32693359 13.07990234 1.06640625 13.09765625 C-1 13 -1 13 -2 12 C-2.25 9.5625 -2.25 9.5625 -2 7 C1.22791555 4.8480563 2.28400809 4.79913557 6 5 C5.67 4.34 5.34 3.68 5 3 C3.02 3 1.04 3 -1 3 C-0.67 2.01 -0.34 1.02 0 0 Z " fill="#F2F1E6" transform="translate(22,18)"/>
<path d="M0 0 C0.66 0 1.32 0 2 0 C2 4.95 2 9.9 2 15 C-4.15234375 15.09765625 -4.15234375 15.09765625 -6 15 C-7 14 -7 14 -7.1875 10.5625 C-7 7 -7 7 -5 5 C-2.375 4.875 -2.375 4.875 0 5 C0 3.35 0 1.7 0 0 Z " fill="#D0D7D2" transform="translate(1202,13)"/>
<path d="M0 0 C1.65 0 3.3 0 5 0 C5 6.27 5 12.54 5 19 C3.35 19 1.7 19 0 19 C0 12.73 0 6.46 0 0 Z " fill="#F6F7F1" transform="translate(592,420)"/>
<path d="M0 0 C2 2 2 2 2.125 4.625 C2.08375 5.40875 2.0425 6.1925 2 7 C-0.64 7 -3.28 7 -6 7 C-5.67 7.99 -5.34 8.98 -5 10 C-3.02 10 -1.04 10 1 10 C0.67 10.99 0.34 11.98 0 13 C-5.36842105 13.35789474 -5.36842105 13.35789474 -7.875 11.9375 C-9.64273274 8.8930714 -9.36823916 6.4368988 -9 3 C-6.8388936 -0.72190547 -4.01418597 -0.42704106 0 0 Z " fill="#A8A6A3" transform="translate(63,18)"/>
<path d="M0 0 C0.66 0 1.32 0 2 0 C2.33 1.65 2.66 3.3 3 5 C3.804375 4.979375 4.60875 4.95875 5.4375 4.9375 C8 5 8 5 9 6 C9.1875 9.4375 9.1875 9.4375 9 13 C8.34 13.66 7.68 14.32 7 15 C4.69 15 2.38 15 0 15 C0 10.05 0 5.1 0 0 Z " fill="#E1E5D7" transform="translate(195,14)"/>
<path d="M0 0 C6.15234375 -0.09765625 6.15234375 -0.09765625 8 0 C9 1 9 1 9.25 3.9375 C9.1675 4.948125 9.085 5.95875 9 7 C6 9 6 9 3 9 C3 10.65 3 12.3 3 14 C2.01 14 1.02 14 0 14 C0 9.38 0 4.76 0 0 Z " fill="#B1D6D6" transform="translate(486,15)"/>
<path d="M0 0 C3 0.25 3 0.25 5 2.25 C5.25 5.25 5.25 5.25 5 8.25 C3 10.25 3 10.25 0 10.5 C-3 10.25 -3 10.25 -5 8.25 C-5.25 5.25 -5.25 5.25 -5 2.25 C-3 0.25 -3 0.25 0 0 Z " fill="#DDE3DD" transform="translate(409,18.75)"/>
<path d="M0 0 C3 0.25 3 0.25 5 2.25 C5.25 5.25 5.25 5.25 5 8.25 C3 10.25 3 10.25 0 10.5 C-3 10.25 -3 10.25 -5 8.25 C-5.25 5.25 -5.25 5.25 -5 2.25 C-3 0.25 -3 0.25 0 0 Z " fill="#DDE3DD" transform="translate(211,18.75)"/>
<path d="M0 0 C3 0.25 3 0.25 5 2.25 C5.25 5.25 5.25 5.25 5 8.25 C3 10.25 3 10.25 0 10.5 C-3 10.25 -3 10.25 -5 8.25 C-5.25 5.25 -5.25 5.25 -5 2.25 C-3 0.25 -3 0.25 0 0 Z " fill="#D7DDD9" transform="translate(1188,17.75)"/>
<path d="M0 0 C3 0.25 3 0.25 5 2.25 C4.42307692 8.82692308 4.42307692 8.82692308 3 10.25 C0.0625 10.4375 0.0625 10.4375 -3 10.25 C-5 8.25 -5 8.25 -5.25 5.25 C-4.90584825 1.120179 -4.129821 0.34415175 0 0 Z " fill="#E2E0D4" transform="translate(127,18.75)"/>
<path d="M0 0 C0.125 3.375 0.125 3.375 0 7 C-2 9 -2 9 -5 9.3125 C-5.99 9.209375 -6.98 9.10625 -8 9 C-10 6 -10 6 -9.75 2.875 C-9.37875 1.451875 -9.37875 1.451875 -9 0 C-5.93109813 -1.53445094 -3.29905734 -0.54984289 0 0 Z " fill="#CFE0E3" transform="translate(335,20)"/>
<path d="M0 0 C1.859375 0.16015625 1.859375 0.16015625 4 1 C5.265625 3.43359375 5.265625 3.43359375 6.25 6.4375 C6.58515625 7.42621094 6.9203125 8.41492188 7.265625 9.43359375 C8 12 8 12 8 14 C7.34 14 6.68 14 6 14 C5.67 13.34 5.34 12.68 5 12 C2.67843403 11.59270772 0.3431213 11.25561323 -2 11 C-2 11.99 -2 12.98 -2 14 C-2.66 14 -3.32 14 -4 14 C-3.00956295 9.16371695 -2.04301154 4.52381127 0 0 Z " fill="#D1DBCE" transform="translate(185,15)"/>
<path d="M0 0 C0 3.3 0 6.6 0 10 C-3.375 10.125 -3.375 10.125 -7 10 C-9 8 -9 8 -9.3125 5 C-9.209375 4.01 -9.10625 3.02 -9 2 C-5.5647952 -0.29013653 -4.014669 -0.17842973 0 0 Z " fill="#382929" transform="translate(292,19)"/>
<path d="M0 0 C1.32 0 2.64 0 4 0 C4 0.99 4 1.98 4 3 C4.99 3.33 5.98 3.66 7 4 C6.34 4.66 5.68 5.32 5 6 C4.53513282 9.12196336 4.53513282 9.12196336 4.375 12.625 C4.30023437 13.81351562 4.22546875 15.00203125 4.1484375 16.2265625 C4.09945312 17.14179688 4.05046875 18.05703125 4 19 C2.68 19 1.36 19 0 19 C0 12.73 0 6.46 0 0 Z " fill="#FDFEFC" transform="translate(602,420)"/>
<path d="M0 0 C2.12493141 -0.02693575 4.24995912 -0.04636628 6.375 -0.0625 C7.55835938 -0.07410156 8.74171875 -0.08570312 9.9609375 -0.09765625 C13 0 13 0 15 1 C15 3.97 15 6.94 15 10 C14.34 10 13.68 10 13 10 C13 7.36 13 4.72 13 2 C11.68 2 10.36 2 9 2 C9 4.64 9 7.28 9 10 C8.01 10 7.02 10 6 10 C6 7.36 6 4.72 6 2 C5.01 2.33 4.02 2.66 3 3 C2.67 5.31 2.34 7.62 2 10 C1.34 10 0.68 10 0 10 C0 6.7 0 3.4 0 0 Z " fill="#C8D4C9" transform="translate(1166,18)"/>
<path d="M0 0 C2.31 0 4.62 0 7 0 C8 1 8 1 8.125 3.4375 C8 6 8 6 7 8 C7.93446535 10.03144641 8.93224776 12.03533587 10 14 C9.01 14 8.02 14 7 14 C5.98133771 12.34467377 4.98189187 10.67739862 4 9 C3.01 8.67 2.02 8.34 1 8 C1 9.98 1 11.96 1 14 C0.67 14 0.34 14 0 14 C0 9.38 0 4.76 0 0 Z " fill="#909184" transform="translate(475,15)"/>
<path d="M0 0 C2.64 0 5.28 0 8 0 C8.33 1.98 8.66 3.96 9 6 C9.66 6 10.32 6 11 6 C11.33 4.02 11.66 2.04 12 0 C12.99 0.33 13.98 0.66 15 1 C14.21447823 2.96080624 13.42137877 4.91857816 12.625 6.875 C11.96371094 8.51082031 11.96371094 8.51082031 11.2890625 10.1796875 C10 13 10 13 8 15 C7.01 15 6.02 15 5 15 C5 14.34 5 13.68 5 13 C5.99 13 6.98 13 8 13 C7.44687265 8.97007218 6.8441938 4.97977076 6 1 C5.01 1.33 4.02 1.66 3 2 C2.67 4.64 2.34 7.28 2 10 C1.34 10 0.68 10 0 10 C0 6.7 0 3.4 0 0 Z " fill="#D3E2DC" transform="translate(438,19)"/>
<path d="M0 0 C1.32 0 2.64 0 4 0 C4.99 3.3 5.98 6.6 7 10 C8.65 10.33 10.3 10.66 12 11 C13.8354799 9.66621425 13.8354799 9.66621425 15 8 C14.67 9.98 14.34 11.96 14 14 C12.88625 14.12375 11.7725 14.2475 10.625 14.375 C6.96896323 14.6465813 6.96896323 14.6465813 5 17 C2.9375 16.8125 2.9375 16.8125 1 16 C0.67 15.01 0.34 14.02 0 13 C1.65 13 3.3 13 5 13 C4.55005243 11.20620902 4.08975857 9.41501072 3.625 7.625 C3.36976563 6.62726563 3.11453125 5.62953125 2.8515625 4.6015625 C2.17595681 1.87458985 2.17595681 1.87458985 0 0 Z " fill="#DA880B" transform="translate(712,321)"/>
<path d="M0 0 C0.33 0 0.66 0 1 0 C1 1.98 1 3.96 1 6 C3.31 6 5.62 6 8 6 C8 4.02 8 2.04 8 0 C8.99 0 9.98 0 11 0 C11 4.62 11 9.24 11 14 C10.01 14 9.02 14 8 14 C8 12.02 8 10.04 8 8 C6.02 8 4.04 8 2 8 C2 9.98 2 11.96 2 14 C1.34 14 0.68 14 0 14 C0 9.38 0 4.76 0 0 Z " fill="#D7D1BB" transform="translate(109,15)"/>
<path d="M0 0 C2.14576637 -0.02685938 4.29162645 -0.04633088 6.4375 -0.0625 C7.63246094 -0.07410156 8.82742187 -0.08570312 10.05859375 -0.09765625 C13 0 13 0 14 1 C14.07179964 2.51928038 14.08392007 4.04167482 14.0625 5.5625 C14.05347656 6.38878906 14.04445312 7.21507812 14.03515625 8.06640625 C14.02355469 8.70449219 14.01195312 9.34257812 14 10 C13.34 10 12.68 10 12 10 C12 7.36 12 4.72 12 2 C11.01 2.33 10.02 2.66 9 3 C8.67 5.31 8.34 7.62 8 10 C7.34 10 6.68 10 6 10 C6 7.36 6 4.72 6 2 C4.68 2 3.36 2 2 2 C2 4.64 2 7.28 2 10 C1.34 10 0.68 10 0 10 C0 6.7 0 3.4 0 0 Z " fill="#D8E8E8" transform="translate(134,19)"/>
<path d="M0 0 C0.66 0.33 1.32 0.66 2 1 C2.33 2.65 2.66 4.3 3 6 C6.3 6.66 9.6 7.32 13 8 C13.33 9.65 13.66 11.3 14 13 C13.01 13 12.02 13 11 13 C10.34 12.01 9.68 11.02 9 10 C6.55095188 9.41642447 6.55095188 9.41642447 4 10 C2.17835779 11.7233779 2.17835779 11.7233779 0.8125 14 C-0.08342532 15.36161737 -1.01280039 16.70303394 -2 18 C-2.66 18 -3.32 18 -4 18 C-2.7508258 14.54074837 -1.32472205 11.85306797 1 9 C0.34 8.01 -0.32 7.02 -1 6 C-0.625 2.8125 -0.625 2.8125 0 0 Z " fill="#DA8406" transform="translate(729,330)"/>
<path d="M0 0 C2.375 -0.125 2.375 -0.125 5 0 C7 2 7 2 7.1953125 3.9453125 C7.13020833 5.96354167 7.06510417 7.98177083 7 10 C4.36 10 1.72 10 -1 10 C-1.625 8.125 -1.625 8.125 -2 6 C-1.34 5.34 -0.68 4.68 0 4 C1.32 4 2.64 4 4 4 C4 3.34 4 2.68 4 2 C2.35 2.33 0.7 2.66 -1 3 C-0.67 2.01 -0.34 1.02 0 0 Z " fill="#E2EEF3" transform="translate(310,19)"/>
<path d="M0 0 C2.375 -0.125 2.375 -0.125 5 0 C7 2 7 2 7.1953125 3.9453125 C7.13020833 5.96354167 7.06510417 7.98177083 7 10 C4.36 10 1.72 10 -1 10 C-1.625 8.125 -1.625 8.125 -2 6 C-1.34 5.34 -0.68 4.68 0 4 C1.32 4 2.64 4 4 4 C4 3.34 4 2.68 4 2 C2.35 2.33 0.7 2.66 -1 3 C-0.67 2.01 -0.34 1.02 0 0 Z " fill="#DBE8EE" transform="translate(1075,18)"/>
<path d="M0 0 C3 0.125 3 0.125 4 1.125 C4.04063832 2.79117115 4.042721 4.45888095 4 6.125 C2.02 6.125 0.04 6.125 -2 6.125 C-2 6.785 -2 7.445 -2 8.125 C-0.02 8.125 1.96 8.125 4 8.125 C3.67 8.785 3.34 9.445 3 10.125 C0.125 10.25 0.125 10.25 -3 10.125 C-3.66 9.465 -4.32 8.805 -5 8.125 C-4.30300807 0.179292 -4.30300807 0.179292 0 0 Z " fill="#B4B7B4" transform="translate(1211,17.875)"/>
<path d="M0 0 C1.32 0 2.64 0 4 0 C4 0.66 4 1.32 4 2 C3.01 2.495 3.01 2.495 2 3 C2 8.61 2 14.22 2 20 C1.01 20 0.02 20 -1 20 C-3.55172414 5.32758621 -3.55172414 5.32758621 0 0 Z " fill="#D68004" transform="translate(606,304)"/>
<path d="M0 0 C0.99 0 1.98 0 3 0 C3 6.27 3 12.54 3 19 C2.01 19 1.02 19 0 19 C-0.3893647 16.39724671 -0.76193662 13.79393651 -1.125 11.1875 C-1.23714844 10.44951172 -1.34929688 9.71152344 -1.46484375 8.95117188 C-2.2265625 3.33984375 -2.2265625 3.33984375 0 0 Z " fill="#D58209" transform="translate(598,308)"/>
<path d="M0 0 C2.5 0.25 2.5 0.25 4.5 2.25 C4.5 3.57 4.5 4.89 4.5 6.25 C2.52 6.58 0.54 6.91 -1.5 7.25 C0.15 7.58 1.8 7.91 3.5 8.25 C3.5 8.91 3.5 9.57 3.5 10.25 C0.625 10.375 0.625 10.375 -2.5 10.25 C-4.5 8.25 -4.5 8.25 -4.75 5.25 C-4.43608753 1.48305032 -3.83691092 0.38369109 0 0 Z " fill="#DCDEDA" transform="translate(1104.5,17.75)"/>
<path d="M0 0 C2.5 0.25 2.5 0.25 4.5 2.25 C4.5 3.57 4.5 4.89 4.5 6.25 C2.19 6.25 -0.12 6.25 -2.5 6.25 C-2.5 6.91 -2.5 7.57 -2.5 8.25 C-0.52 8.25 1.46 8.25 3.5 8.25 C3.5 8.91 3.5 9.57 3.5 10.25 C0.625 10.375 0.625 10.375 -2.5 10.25 C-4.5 8.25 -4.5 8.25 -4.75 5.25 C-4.43608753 1.48305032 -3.83691092 0.38369109 0 0 Z " fill="#DEDBD1" transform="translate(155.5,18.75)"/>
<path d="M0 0 C1.99954746 -0.04254356 4.00041636 -0.04080783 6 0 C7 1 7 1 7.09765625 3.06640625 C7.08605469 3.89011719 7.07445312 4.71382812 7.0625 5.5625 C7.05347656 6.38878906 7.04445313 7.21507812 7.03515625 8.06640625 C7.02355469 8.70449219 7.01195312 9.34257812 7 10 C4.69 10 2.38 10 0 10 C-0.33 8.35 -0.66 6.7 -1 5 C0.98 4.67 2.96 4.34 5 4 C5 3.34 5 2.68 5 2 C3.02 2.33 1.04 2.66 -1 3 C-0.67 2.01 -0.34 1.02 0 0 Z " fill="#DADED8" transform="translate(428,19)"/>
<path d="M0 0 C2.31 0.33 4.62 0.66 7 1 C7.125 4.375 7.125 4.375 7 8 C6.34 8.66 5.68 9.32 5 10 C3.35 10 1.7 10 0 10 C0 6.7 0 3.4 0 0 Z " fill="#30262D" transform="translate(367,17)"/>
<path d="M0 0 C1.66611905 -0.042721 3.33382885 -0.04063832 5 0 C6 1 6 1 6.09765625 3.06640625 C6.08605469 3.89011719 6.07445312 4.71382812 6.0625 5.5625 C6.05347656 6.38878906 6.04445313 7.21507812 6.03515625 8.06640625 C6.02355469 8.70449219 6.01195312 9.34257812 6 10 C3.69 10 1.38 10 -1 10 C-1.33 8.35 -1.66 6.7 -2 5 C-0.02 4.67 1.96 4.34 4 4 C4 3.34 4 2.68 4 2 C2.35 2.33 0.7 2.66 -1 3 C-0.67 2.01 -0.34 1.02 0 0 Z " fill="#D2DFE4" transform="translate(270,19)"/>
<path d="M0 0 C0.99 0.33 1.98 0.66 3 1 C2.34 2.98 1.68 4.96 1 7 C3.97 7.495 3.97 7.495 7 8 C6.67 8.99 6.34 9.98 6 11 C2.625 11.125 2.625 11.125 -1 11 C-3 9 -3 9 -3.3125 5.5 C-3.209375 4.345 -3.10625 3.19 -3 2 C-2.01 1.34 -1.02 0.68 0 0 Z " fill="#F4F8F9" transform="translate(596,484)"/>
<path d="M0 0 C0.94875 0.04125 1.8975 0.0825 2.875 0.125 C2.545 1.115 2.215 2.105 1.875 3.125 C0.555 2.795 -0.765 2.465 -2.125 2.125 C-2.125 3.115 -2.125 4.105 -2.125 5.125 C-1.320625 5.3725 -0.51625 5.62 0.3125 5.875 C2.875 7.125 2.875 7.125 3.8125 9.125 C3.833125 9.785 3.85375 10.445 3.875 11.125 C1.875 13.125 1.875 13.125 -1.75 13.25 C-2.86375 13.20875 -3.9775 13.1675 -5.125 13.125 C-4.795 12.135 -4.465 11.145 -4.125 10.125 C-2.475 10.455 -0.825 10.785 0.875 11.125 C0.875 10.135 0.875 9.145 0.875 8.125 C0.070625 7.8775 -0.73375 7.63 -1.5625 7.375 C-4.125 6.125 -4.125 6.125 -5.0625 4.125 C-5.083125 3.465 -5.10375 2.805 -5.125 2.125 C-3.125 0.125 -3.125 0.125 0 0 Z " fill="#E3E7E0" transform="translate(72.125,17.875)"/>
<path d="M0 0 C1.4540625 0.0309375 1.4540625 0.0309375 2.9375 0.0625 C2.9375 0.7225 2.9375 1.3825 2.9375 2.0625 C0.9575 2.0625 -1.0225 2.0625 -3.0625 2.0625 C-3.0625 3.0525 -3.0625 4.0425 -3.0625 5.0625 C-2.27875 5.35125 -1.495 5.64 -0.6875 5.9375 C1.9375 7.0625 1.9375 7.0625 3.9375 9.0625 C3.40178571 12.59821429 3.40178571 12.59821429 1.9375 14.0625 C-0.39547433 14.10342937 -2.72955225 14.10491723 -5.0625 14.0625 C-4.7325 13.0725 -4.4025 12.0825 -4.0625 11.0625 C-2.4125 11.3925 -0.7625 11.7225 0.9375 12.0625 C-0.30796405 8.32610784 -1.69654953 7.87493487 -5.0625 6.0625 C-3.98897059 0.08140756 -3.98897059 0.08140756 0 0 Z " fill="#DCE2DD" transform="translate(502.0625,14.9375)"/>
<path d="M0 0 C2.31 0 4.62 0 7 0 C7 0.66 7 1.32 7 2 C5.35 2 3.7 2 2 2 C2 3.32 2 4.64 2 6 C3.65 6 5.3 6 7 6 C7 6.66 7 7.32 7 8 C5.35 8 3.7 8 2 8 C2 9.32 2 10.64 2 12 C3.98 12 5.96 12 8 12 C8 12.66 8 13.32 8 14 C5.36 14 2.72 14 0 14 C0 9.38 0 4.76 0 0 Z " fill="#DCD7CA" transform="translate(1053,14)"/>
<path d="M0 0 C2.875 -0.125 2.875 -0.125 6 0 C6.66 0.66 7.32 1.32 8 2 C7.44444444 6.55555556 7.44444444 6.55555556 6 8 C4.00041636 8.04080783 1.99954746 8.04254356 0 8 C0 5.36 0 2.72 0 0 Z " fill="#80858A" transform="translate(562,199)"/>
<path d="M0 0 C3.375 -0.125 3.375 -0.125 7 0 C9 2 9 2 9.1953125 3.9453125 C9.13020833 5.96354167 9.06510417 7.98177083 9 10 C8.01 10 7.02 10 6 10 C6 7.36 6 4.72 6 2 C5.01 2.33 4.02 2.66 3 3 C2.67 5.31 2.34 7.62 2 10 C1.34 10 0.68 10 0 10 C0 6.7 0 3.4 0 0 Z " fill="#C6D1BD" transform="translate(1063,18)"/>
<path d="M0 0 C0.66 0 1.32 0 2 0 C2.33 1.65 2.66 3.3 3 5 C4.65 5.33 6.3 5.66 8 6 C8 8.97 8 11.94 8 15 C7.34 15 6.68 15 6 15 C6 12.36 6 9.72 6 7 C4.68 7 3.36 7 2 7 C2 9.64 2 12.28 2 15 C1.34 15 0.68 15 0 15 C0 10.05 0 5.1 0 0 Z " fill="#CCDDD5" transform="translate(1143,13)"/>
<path d="M0 0 C1.67542976 0.28604898 3.34385343 0.61781233 5 1 C5 3.31 5 5.62 5 8 C2.625 8.625 2.625 8.625 0 9 C-0.66 8.34 -1.32 7.68 -2 7 C-1.43181818 1.43181818 -1.43181818 1.43181818 0 0 Z " fill="#353130" transform="translate(9,20)"/>
<path d="M0 0 C0 0.66 0 1.32 0 2 C-2.31 2.66 -4.62 3.32 -7 4 C-7 5.98 -7 7.96 -7 10 C-4.69 10.66 -2.38 11.32 0 12 C0 12.66 0 13.32 0 14 C-6.30818278 14.35706695 -6.30818278 14.35706695 -8.9375 13 C-10.65886567 9.75978228 -10.52960415 6.58042244 -10 3 C-7.8202924 -1.102979 -4.20798751 -0.23818797 0 0 Z " fill="#DAE5E5" transform="translate(266,15)"/>
<path d="M0 0 C0.99 0 1.98 0 3 0 C2.67 0.99 2.34 1.98 2 3 C1.77439324 5.39254576 1.59151405 7.78928123 1.4375 10.1875 C1.35371094 11.45980469 1.26992188 12.73210937 1.18359375 14.04296875 C1.12300781 15.01878906 1.06242188 15.99460937 1 17 C0.01 17 -0.98 17 -2 17 C-2.05383848 14.54137599 -2.09359038 12.0839245 -2.125 9.625 C-2.14175781 8.92632812 -2.15851562 8.22765625 -2.17578125 7.5078125 C-2.19344267 5.67102514 -2.10303261 3.83398037 -2 2 C-1.34 1.34 -0.68 0.68 0 0 Z " fill="#D67E01" transform="translate(614,308)"/>
<path d="M0 0 C0.66 0 1.32 0 2 0 C2.08117951 2.41734542 2.14056926 4.83194949 2.1875 7.25 C2.22520508 8.27287109 2.22520508 8.27287109 2.26367188 9.31640625 C2.30895239 12.42566842 2.16506253 14.6740015 0.75 17.46875 C-2.30213407 20.13936731 -5.09114596 19.2563183 -9 19 C-8.505 17.515 -8.505 17.515 -8 16 C-5.36 16 -2.72 16 0 16 C0.0755461 12.29824129 -0.02111663 8.85687619 -0.5625 5.1875 C-1 2 -1 2 0 0 Z " fill="#F5F1E4" transform="translate(15,18)"/>
<path d="M0 0 C-0.75 4.75 -0.75 4.75 -3 7 C-5.625 6.625 -5.625 6.625 -8 6 C-8.33 4.68 -8.66 3.36 -9 2 C-5.5647952 -0.29013653 -4.014669 -0.17842973 0 0 Z " fill="#8A8685" transform="translate(284,129)"/>
<path d="M0 0 C2.61580479 0.3269756 4.64078137 0.82039068 7 2 C7 3.32 7 4.64 7 6 C3.7 6 0.4 6 -3 6 C-2 2 -2 2 0 0 Z " fill="#888588" transform="translate(988,120)"/>
<path d="M0 0 C2.61580479 0.3269756 4.64078137 0.82039068 7 2 C7 3.32 7 4.64 7 6 C3.7 6 0.4 6 -3 6 C-2 2 -2 2 0 0 Z " fill="#888588" transform="translate(326,120)"/>
<path d="M0 0 C6.15234375 -0.09765625 6.15234375 -0.09765625 8 0 C9 1 9 1 9.09765625 3.06640625 C9.08605469 3.89011719 9.07445312 4.71382812 9.0625 5.5625 C9.05347656 6.38878906 9.04445313 7.21507812 9.03515625 8.06640625 C9.02355469 8.70449219 9.01195312 9.34257812 9 10 C8.34 10 7.68 10 7 10 C7 7.36 7 4.72 7 2 C5.68 2.33 4.36 2.66 3 3 C2.67 5.31 2.34 7.62 2 10 C1.34 10 0.68 10 0 10 C0 6.7 0 3.4 0 0 Z " fill="#D5E3DF" transform="translate(416,19)"/>
<path d="M0 0 C0.66 0 1.32 0 2 0 C2 2.64 2 5.28 2 8 C3.32 7.67 4.64 7.34 6 7 C6.33 4.69 6.66 2.38 7 0 C7.66 0 8.32 0 9 0 C9 3.3 9 6.6 9 10 C6.36 10 3.72 10 1 10 C-0.60725635 6.78548731 -0.05748185 3.56387464 0 0 Z " fill="#DDE3D7" transform="translate(218,19)"/>
<path d="M0 0 C0.66 0 1.32 0 2 0 C2 2.64 2 5.28 2 8 C3.32 8 4.64 8 6 8 C6 5.36 6 2.72 6 0 C6.66 0 7.32 0 8 0 C8 3.3 8 6.6 8 10 C5.66705225 10.04241723 3.33297433 10.04092937 1 10 C0 9 0 9 -0.09765625 6.93359375 C-0.08605469 6.10988281 -0.07445312 5.28617188 -0.0625 4.4375 C-0.05347656 3.61121094 -0.04445313 2.78492188 -0.03515625 1.93359375 C-0.02355469 1.29550781 -0.01195312 0.65742188 0 0 Z " fill="#AED8E3" transform="translate(293,19)"/>
<path d="M0 0 C0.763125 0.20625 1.52625 0.4125 2.3125 0.625 C1.9314482 3.38762553 1.47652868 4.46643894 -0.5625 6.4375 C-1.26375 6.829375 -1.965 7.22125 -2.6875 7.625 C-3.6775 7.295 -4.6675 6.965 -5.6875 6.625 C-5.875 4.25 -5.875 4.25 -5.6875 1.625 C-2.6875 -0.375 -2.6875 -0.375 0 0 Z " fill="#DFECF1" transform="translate(25.6875,23.375)"/>
<path d="M0 0 C0 1.98 0 3.96 0 6 C-2.6666419 7.33332095 -4.16680303 6.67102033 -7 6 C-7 4.02 -7 2.04 -7 0 C-3.98968256 -0.93423645 -3.13349732 -1.04449911 0 0 Z " fill="#D9D1B0" transform="translate(495,16)"/>
<path d="M0 0 C0.33 0.99 0.66 1.98 1 3 C1.99 3 2.98 3 4 3 C4 3.66 4 4.32 4 5 C3.34 5 2.68 5 2 5 C2 6.98 2 8.96 2 11 C2.66 11 3.32 11 4 11 C4 11.66 4 12.32 4 13 C2.35 12.67 0.7 12.34 -1 12 C-1.33 9.03 -1.66 6.06 -2 3 C-1.34 3 -0.68 3 0 3 C0 2.01 0 1.02 0 0 Z " fill="#BCCBC3" transform="translate(1155,15)"/>
<path d="M0 0 C2.4375 0.375 2.4375 0.375 5 1 C6.26237731 3.52475462 6.09856404 5.31200466 6.0625 8.125 C6.05347656 9.03507812 6.04445313 9.94515625 6.03515625 10.8828125 C6.02355469 11.58148438 6.01195312 12.28015625 6 13 C5.01 13 4.02 13 3 13 C2.92652344 11.93458984 2.92652344 11.93458984 2.8515625 10.84765625 C2.73941406 9.46900391 2.73941406 9.46900391 2.625 8.0625 C2.55539063 7.14597656 2.48578125 6.22945312 2.4140625 5.28515625 C2.27742188 4.53105469 2.14078125 3.77695312 2 3 C1.34 2.67 0.68 2.34 0 2 C0 1.34 0 0.68 0 0 Z " fill="#DDDDC3" transform="translate(46,18)"/>
<path d="M0 0 C0.66 0 1.32 0 2 0 C2 0.99 2 1.98 2 3 C2.99 3 3.98 3 5 3 C5 3.66 5 4.32 5 5 C4.01 5 3.02 5 2 5 C2 6.98 2 8.96 2 11 C2.99 11 3.98 11 5 11 C5 11.66 5 12.32 5 13 C3.35 12.67 1.7 12.34 0 12 C0 9.69 0 7.38 0 5 C-0.66 5 -1.32 5 -2 5 C-2 4.34 -2 3.68 -2 3 C-1.34 3 -0.68 3 0 3 C0 2.01 0 1.02 0 0 Z " fill="#D8DACC" transform="translate(230,16)"/>
<path d="M0 0 C0.94875 0.04125 1.8975 0.0825 2.875 0.125 C2.875 0.785 2.875 1.445 2.875 2.125 C1.225 2.455 -0.425 2.785 -2.125 3.125 C-2.125 4.445 -2.125 5.765 -2.125 7.125 C-0.475 7.455 1.175 7.785 2.875 8.125 C2.875 8.785 2.875 9.445 2.875 10.125 C0 10.25 0 10.25 -3.125 10.125 C-5.125 8.125 -5.125 8.125 -5.375 5.125 C-5.02345647 0.90647769 -4.22997422 0.16919897 0 0 Z " fill="#DADBD3" transform="translate(388.125,18.875)"/>
<path d="M0 0 C0.99 0 1.98 0 3 0 C4.06671952 3.20015856 3.94845472 4.88544294 3.5625 8.1875 C3.46066406 9.08855469 3.35882813 9.98960938 3.25390625 10.91796875 C3.17011719 11.60503906 3.08632813 12.29210938 3 13 C2.01 13 1.02 13 0 13 C0 8.71 0 4.42 0 0 Z " fill="#D3DDD9" transform="translate(33,18)"/>
<path d="M0 0 C0.66 0 1.32 0 2 0 C2 3.96 2 7.92 2 12 C3.98 12 5.96 12 8 12 C8 12.66 8 13.32 8 14 C5.36 14 2.72 14 0 14 C0 9.38 0 4.76 0 0 Z " fill="#D9E1D9" transform="translate(1117,14)"/>
<path d="M0 0 C2.31 0 4.62 0 7 0 C8 1 8 1 8.0625 3.5625 C8.041875 4.366875 8.02125 5.17125 8 6 C7.01 6.495 7.01 6.495 6 7 C6 5.35 6 3.7 6 2 C4.35 2 2.7 2 1 2 C1 3.65 1 5.3 1 7 C2.98 7.495 2.98 7.495 5 8 C3.68 8 2.36 8 1 8 C1 9.98 1 11.96 1 14 C0.67 14 0.34 14 0 14 C0 9.38 0 4.76 0 0 Z " fill="#FFFFFE" transform="translate(475,15)"/>
<path d="M0 0 C0 0.66 0 1.32 0 2 C-1.65 2.33 -3.3 2.66 -5 3 C-5 4.32 -5 5.64 -5 7 C-3.35 7.33 -1.7 7.66 0 8 C0 8.66 0 9.32 0 10 C-2.875 10.125 -2.875 10.125 -6 10 C-8 8 -8 8 -8.3125 5 C-8.209375 4.01 -8.10625 3.02 -8 2 C-4.77208445 -0.1519437 -3.71599191 -0.20086443 0 0 Z " fill="#D0DCDE" transform="translate(291,19)"/>
<path d="M0 0 C0.66 0 1.32 0 2 0 C2 0.99 2 1.98 2 3 C2.99 3 3.98 3 5 3 C5 3.66 5 4.32 5 5 C4.01 5 3.02 5 2 5 C2 6.98 2 8.96 2 11 C2.99 11 3.98 11 5 11 C5 11.66 5 12.32 5 13 C3.35 12.67 1.7 12.34 0 12 C-0.19573608 10.56359829 -0.38127816 9.12580496 -0.5625 7.6875 C-0.66691406 6.88699219 -0.77132813 6.08648437 -0.87890625 5.26171875 C-1 3 -1 3 0 0 Z " fill="#CDDDDE" transform="translate(393,16)"/>
<path d="M0 0 C1.2065625 0.0309375 1.2065625 0.0309375 2.4375 0.0625 C2.81968767 1.71864657 3.15145102 3.38707024 3.4375 5.0625 C2.4375 6.0625 2.4375 6.0625 -0.125 6.125 C-1.3315625 6.0940625 -1.3315625 6.0940625 -2.5625 6.0625 C-2.94468767 4.40635343 -3.27645102 2.73792976 -3.5625 1.0625 C-2.5625 0.0625 -2.5625 0.0625 0 0 Z " fill="#F1F2EE" transform="translate(1026.5625,133.9375)"/>
<path d="M0 0 C1.2065625 0.0309375 1.2065625 0.0309375 2.4375 0.0625 C2.81968767 1.71864657 3.15145102 3.38707024 3.4375 5.0625 C2.4375 6.0625 2.4375 6.0625 -0.125 6.125 C-1.3315625 6.0940625 -1.3315625 6.0940625 -2.5625 6.0625 C-2.94468767 4.40635343 -3.27645102 2.73792976 -3.5625 1.0625 C-2.5625 0.0625 -2.5625 0.0625 0 0 Z " fill="#F1F2EE" transform="translate(364.5625,133.9375)"/>
<path d="M0 0 C1.2065625 0.0309375 1.2065625 0.0309375 2.4375 0.0625 C2.81968767 1.71864657 3.15145102 3.38707024 3.4375 5.0625 C2.4375 6.0625 2.4375 6.0625 -0.125 6.125 C-1.3315625 6.0940625 -1.3315625 6.0940625 -2.5625 6.0625 C-2.94468767 4.40635343 -3.27645102 2.73792976 -3.5625 1.0625 C-2.5625 0.0625 -2.5625 0.0625 0 0 Z " fill="#F1F2EE" transform="translate(1026.5625,115.9375)"/>
<path d="M0 0 C1.2065625 0.0309375 1.2065625 0.0309375 2.4375 0.0625 C2.81968767 1.71864657 3.15145102 3.38707024 3.4375 5.0625 C2.4375 6.0625 2.4375 6.0625 -0.125 6.125 C-1.3315625 6.0940625 -1.3315625 6.0940625 -2.5625 6.0625 C-2.94468767 4.40635343 -3.27645102 2.73792976 -3.5625 1.0625 C-2.5625 0.0625 -2.5625 0.0625 0 0 Z " fill="#F1F2EE" transform="translate(364.5625,115.9375)"/>
<path d="M0 0 C0.66 0 1.32 0 2 0 C2 0.99 2 1.98 2 3 C2.66 3 3.32 3 4 3 C4 3.66 4 4.32 4 5 C3.34 5 2.68 5 2 5 C2 6.98 2 8.96 2 11 C2.66 11 3.32 11 4 11 C4 11.66 4 12.32 4 13 C2.68 12.67 1.36 12.34 0 12 C0 9.69 0 7.38 0 5 C-0.66 5 -1.32 5 -2 5 C-2 4.34 -2 3.68 -2 3 C-1.34 3 -0.68 3 0 3 C0 2.01 0 1.02 0 0 Z " fill="#DFE1D4" transform="translate(320,16)"/>
<path d="M0 0 C0.33 0.66 0.66 1.32 1 2 C3.64 2 6.28 2 9 2 C9.33 3.65 9.66 5.3 10 7 C9.34 7 8.68 7 8 7 C7.67 6.34 7.34 5.68 7 5 C4.67843403 4.59270772 2.3431213 4.25561323 0 4 C0 4.99 0 5.98 0 7 C-0.66 7 -1.32 7 -2 7 C-1.125 1.125 -1.125 1.125 0 0 Z " fill="#DCE2DD" transform="translate(183,22)"/>
<path d="M0 0 C1.2065625 0.0309375 1.2065625 0.0309375 2.4375 0.0625 C2.4375 2.0425 2.4375 4.0225 2.4375 6.0625 C0.7875 6.0625 -0.8625 6.0625 -2.5625 6.0625 C-2.94468767 4.40635343 -3.27645102 2.73792976 -3.5625 1.0625 C-2.5625 0.0625 -2.5625 0.0625 0 0 Z " fill="#3A3532" transform="translate(330.5625,20.9375)"/>
<path d="M0 0 C1.65 0 3.3 0 5 0 C5.38218767 1.65614657 5.71395102 3.32457024 6 5 C5 6 5 6 2.4375 6.0625 C1.2309375 6.0315625 1.2309375 6.0315625 0 6 C0 4.02 0 2.04 0 0 Z " fill="#2C303F" transform="translate(124,21)"/>
<path d="M0 0 C0.33 1.32 0.66 2.64 1 4 C-1.64 4 -4.28 4 -7 4 C-6.625 2.0625 -6.625 2.0625 -6 0 C-3.50907189 -1.24546405 -2.58919267 -0.7767578 0 0 Z " fill="#8B8A8F" transform="translate(627,535)"/>
<path d="M0 0 C1.26026798 2.52053595 0.91874445 3.8542098 0.5625 6.625 C0.46066406 7.44226563 0.35882813 8.25953125 0.25390625 9.1015625 C0.17011719 9.72804688 0.08632813 10.35453125 0 11 C0.66 11 1.32 11 2 11 C2 11.66 2 12.32 2 13 C0.02 13 -1.96 13 -4 13 C-4.33 12.34 -4.66 11.68 -5 11 C-4.01 11 -3.02 11 -2 11 C-2.04125 9.741875 -2.0825 8.48375 -2.125 7.1875 C-2.2390374 3.70935927 -2.05925681 3.08888522 0 0 Z " fill="#E39514" transform="translate(501,311)"/>
<path d="M0 0 C0.66 0.33 1.32 0.66 2 1 C1.01 5.95 0.02 10.9 -1 16 C-1.66 16 -2.32 16 -3 16 C-2.88544319 14.08268082 -2.75793742 12.1661325 -2.625 10.25 C-2.55539062 9.18265625 -2.48578125 8.1153125 -2.4140625 7.015625 C-2.0271777 4.19793568 -1.44313834 2.4169634 0 0 Z " fill="#D38613" transform="translate(737,307)"/>
<path d="M0 0 C1.65 0.33 3.3 0.66 5 1 C4.67 2.65 4.34 4.3 4 6 C2.35 5.67 0.7 5.34 -1 5 C-0.67 3.35 -0.34 1.7 0 0 Z " fill="#262639" transform="translate(407,21)"/>
<path d="M0 0 C1.65 0.33 3.3 0.66 5 1 C4.67 2.65 4.34 4.3 4 6 C2.35 5.67 0.7 5.34 -1 5 C-0.67 3.35 -0.34 1.7 0 0 Z " fill="#262639" transform="translate(209,21)"/>
<path d="M0 0 C1.65 0.33 3.3 0.66 5 1 C4.67 2.65 4.34 4.3 4 6 C2.35 5.67 0.7 5.34 -1 5 C-0.67 3.35 -0.34 1.7 0 0 Z " fill="#262638" transform="translate(1186,20)"/>
<path d="M0 0 C1.65 0.33 3.3 0.66 5 1 C4.67 2.65 4.34 4.3 4 6 C2.35 5.67 0.7 5.34 -1 5 C-0.67 3.35 -0.34 1.7 0 0 Z " fill="#39323C" transform="translate(1133,20)"/>
<path d="M0 0 C1.65 0.33 3.3 0.66 5 1 C4.67 2.65 4.34 4.3 4 6 C2.35 5.67 0.7 5.34 -1 5 C-0.67 3.35 -0.34 1.7 0 0 Z " fill="#36323D" transform="translate(1087,20)"/>
<path d="M0 0 C0.66 0 1.32 0 2 0 C2 4.95 2 9.9 2 15 C1.34 15 0.68 15 0 15 C-1.33257403 4.44191344 -1.33257403 4.44191344 0 0 Z " fill="#D8EAE6" transform="translate(1202,13)"/>
<path d="M0 0 C2.0625 0.4375 2.0625 0.4375 4 1 C4.33 2.32 4.66 3.64 5 5 C2.36 5 -0.28 5 -3 5 C-1.125 1.125 -1.125 1.125 0 0 Z " fill="#8D8786" transform="translate(585,206)"/>
<path d="M0 0 C0.33 0.66 0.66 1.32 1 2 C3.64 2 6.28 2 9 2 C9 2.33 9 2.66 9 3 C7.02 3 5.04 3 3 3 C3 3.66 3 4.32 3 5 C4.98 5 6.96 5 9 5 C8.67 5.66 8.34 6.32 8 7 C5.125 7.125 5.125 7.125 2 7 C0 5 0 5 -0.125 2.375 C-0.08375 1.59125 -0.0425 0.8075 0 0 Z " fill="#BBC6CB" transform="translate(1206,21)"/>
<path d="M0 0 C1.65 0 3.3 0 5 0 C5 1.98 5 3.96 5 6 C3.35 6 1.7 6 0 6 C0 4.02 0 2.04 0 0 Z " fill="#2F3037" transform="translate(197,21)"/>
<path d="M0 0 C-0.33 1.65 -0.66 3.3 -1 5 C-2.98 5 -4.96 5 -7 5 C-6.6875 3.0625 -6.6875 3.0625 -6 1 C-3 0 -3 0 0 0 Z " fill="#8E8786" transform="translate(604,486)"/>
<path d="M0 0 C-0.33 1.65 -0.66 3.3 -1 5 C-2.65 4.67 -4.3 4.34 -6 4 C-6 2.68 -6 1.36 -6 0 C-3.50907189 -1.24546405 -2.58919267 -0.7767578 0 0 Z " fill="#ABAFB4" transform="translate(433,24)"/>
<path d="M0 0 C1.65 0 3.3 0 5 0 C5 1.65 5 3.3 5 5 C3.35 5.33 1.7 5.66 0 6 C0 4.02 0 2.04 0 0 Z " fill="#2D2D31" transform="translate(1197,20)"/>
<path d="M0 0 C0.33 0 0.66 0 1 0 C1.309375 0.969375 1.61875 1.93875 1.9375 2.9375 C2.69523342 5.84065792 2.69523342 5.84065792 4 7 C5.99958364 7.04080783 8.00045254 7.04254356 10 7 C9.67 7.99 9.34 8.98 9 10 C3.63157895 10.35789474 3.63157895 10.35789474 1.125 8.9375 C-0.58196395 5.99772876 -0.18799766 3.32129197 0 0 Z " fill="#D9EBF2" transform="translate(54,21)"/>
<path d="M0 0 C1.65 0.33 3.3 0.66 5 1 C4.67 2.32 4.34 3.64 4 5 C2.35 4.67 0.7 4.34 -1 4 C-0.67 2.68 -0.34 1.36 0 0 Z " fill="#EEF3F2" transform="translate(636,545)"/>
<path d="M0 0 C1.65 0.33 3.3 0.66 5 1 C4.67 2.32 4.34 3.64 4 5 C2.35 4.67 0.7 4.34 -1 4 C-0.67 2.68 -0.34 1.36 0 0 Z " fill="#EEF3F2" transform="translate(636,531)"/>
<path d="M0 0 C1.65 0.33 3.3 0.66 5 1 C4.67 2.32 4.34 3.64 4 5 C2.35 4.67 0.7 4.34 -1 4 C-0.67 2.68 -0.34 1.36 0 0 Z " fill="#EEF3F2" transform="translate(642,490)"/>
<path d="M0 0 C1.65 0.33 3.3 0.66 5 1 C4.67 2.32 4.34 3.64 4 5 C2.35 4.67 0.7 4.34 -1 4 C-0.67 2.68 -0.34 1.36 0 0 Z " fill="#EEF3F2" transform="translate(642,476)"/>
<path d="M0 0 C1.65 0.33 3.3 0.66 5 1 C4.67 2.32 4.34 3.64 4 5 C2.35 4.67 0.7 4.34 -1 4 C-0.67 2.68 -0.34 1.36 0 0 Z " fill="#F1F3F0" transform="translate(640,434)"/>
<path d="M0 0 C1.65 0.33 3.3 0.66 5 1 C4.67 2.32 4.34 3.64 4 5 C2.35 4.67 0.7 4.34 -1 4 C-0.67 2.68 -0.34 1.36 0 0 Z " fill="#F1F3F0" transform="translate(640,420)"/>
<path d="M0 0 C1.65 0.33 3.3 0.66 5 1 C4.67 2.32 4.34 3.64 4 5 C2.35 4.67 0.7 4.34 -1 4 C-0.67 2.68 -0.34 1.36 0 0 Z " fill="#F1F3F0" transform="translate(660,217)"/>
<path d="M0 0 C1.65 0.33 3.3 0.66 5 1 C4.67 2.32 4.34 3.64 4 5 C2.35 4.67 0.7 4.34 -1 4 C-0.67 2.68 -0.34 1.36 0 0 Z " fill="#F1F3F0" transform="translate(660,203)"/>
<path d="M0 0 C0 2.64 0 5.28 0 8 C-1.32 7.67 -2.64 7.34 -4 7 C-4 5.02 -4 3.04 -4 1 C-1 0 -1 0 0 0 Z " fill="#412829" transform="translate(399,20)"/>
<path d="M0 0 C1.66611905 -0.042721 3.33382885 -0.04063832 5 0 C6 1 6 1 6.09765625 3.06640625 C6.08605469 3.89011719 6.07445312 4.71382812 6.0625 5.5625 C6.05347656 6.38878906 6.04445313 7.21507812 6.03515625 8.06640625 C6.01775391 9.02353516 6.01775391 9.02353516 6 10 C5.67 10 5.34 10 5 10 C5 8.35 5 6.7 5 5 C4.01 4.67 3.02 4.34 2 4 C2.66 4 3.32 4 4 4 C4 3.34 4 2.68 4 2 C2.35 2.33 0.7 2.66 -1 3 C-0.67 2.01 -0.34 1.02 0 0 Z " fill="#E6ECE9" transform="translate(270,19)"/>
<path d="M0 0 C1.60938465 2.41407698 2.65490738 4.34044437 3.6875 7 C3.95949219 7.680625 4.23148438 8.36125 4.51171875 9.0625 C5 11 5 11 4 14 C1.28608722 9.22642128 -0.56561146 5.65611463 0 0 Z " fill="#D88A11" transform="translate(720,307)"/>
<path d="M0 0 C1.98 0 3.96 0 6 0 C5.01 0.66 4.02 1.32 3 2 C2.42251197 3.96361864 2.42251197 3.96361864 2.3125 6.125 C2.209375 7.40375 2.10625 8.6825 2 10 C1.34 10 0.68 10 0 10 C0 6.7 0 3.4 0 0 Z " fill="#E5E7D4" transform="translate(438,19)"/>
<path d="M0 0 C0.185625 0.61875 0.37125 1.2375 0.5625 1.875 C2.71437233 5.05602866 5.37533763 5.19451947 9 6 C9 6.66 9 7.32 9 8 C5.625 8.125 5.625 8.125 2 8 C0 6 0 6 -0.125 2.875 C-0.08375 1.92625 -0.0425 0.9775 0 0 Z " fill="#E6DFCD" transform="translate(257,21)"/>
<path d="M0 0 C1.65 0 3.3 0 5 0 C4.34 0.66 3.68 1.32 3 2 C2.54188325 3.97235333 2.54188325 3.97235333 2.375 6.125 C2.25125 7.40375 2.1275 8.6825 2 10 C1.34 10 0.68 10 0 10 C0 6.7 0 3.4 0 0 Z " fill="#E4E7D2" transform="translate(338,19)"/>
<path d="M0 0 C2.375 -0.125 2.375 -0.125 5 0 C7 2 7 2 7.1953125 3.9453125 C7.13020833 5.96354167 7.06510417 7.98177083 7 10 C6.67 10 6.34 10 6 10 C5.855625 9.05125 5.71125 8.1025 5.5625 7.125 C5.17064601 4.1065506 5.17064601 4.1065506 4 2 C2.35 2.33 0.7 2.66 -1 3 C-0.67 2.01 -0.34 1.02 0 0 Z " fill="#D1CCA6" transform="translate(310,19)"/>
<path d="M0 0 C2.475 0.99 2.475 0.99 5 2 C5 2.66 5 3.32 5 4 C3.35 4 1.7 4 0 4 C-0.66 5.32 -1.32 6.64 -2 8 C-2.125 5.125 -2.125 5.125 -2 2 C-1.34 1.34 -0.68 0.68 0 0 Z " fill="#7B8F9F" transform="translate(1102,18)"/>
<path d="M0 0 C2.375 -0.125 2.375 -0.125 5 0 C7 2 7 2 7.1953125 3.9453125 C7.13020833 5.96354167 7.06510417 7.98177083 7 10 C6.67 10 6.34 10 6 10 C5.855625 9.05125 5.71125 8.1025 5.5625 7.125 C5.17064601 4.1065506 5.17064601 4.1065506 4 2 C2.35 2.33 0.7 2.66 -1 3 C-0.67 2.01 -0.34 1.02 0 0 Z " fill="#CBC8A3" transform="translate(1075,18)"/>
<path d="M0 0 C1.65 0 3.3 0 5 0 C5.33 0.66 5.66 1.32 6 2 C5.67 2.66 5.34 3.32 5 4 C3.02 4 1.04 4 -1 4 C-0.67 2.68 -0.34 1.36 0 0 Z " fill="#9EA19F" transform="translate(153,19)"/>
<path d="M0 0 C2.475 0.495 2.475 0.495 5 1 C4.67 2.32 4.34 3.64 4 5 C2.68 5 1.36 5 0 5 C0 3.35 0 1.7 0 0 Z " fill="#F4F5F2" transform="translate(592,411)"/>
<path d="M0 0 C0.66 0 1.32 0 2 0 C2.1953125 2.01822917 2.390625 4.03645833 2.5859375 6.0546875 C2.86374749 8.22668245 2.86374749 8.22668245 5 10 C3.35 9.67 1.7 9.34 0 9 C0 6.03 0 3.06 0 0 Z " fill="#E3E8D6" transform="translate(293,19)"/>
<path d="M0 0 C2.475 0.495 2.475 0.495 5 1 C4.01 1.33 3.02 1.66 2 2 C2 4.64 2 7.28 2 10 C1.34 10 0.68 10 0 10 C0 6.7 0 3.4 0 0 Z " fill="#DFE6DB" transform="translate(134,19)"/>
<path d="M0 0 C0.99 0 1.98 0 3 0 C3 1.65 3 3.3 3 5 C0.36 5 -2.28 5 -5 5 C-5 4.34 -5 3.68 -5 3 C-3.02 3 -1.04 3 1 3 C0.67 2.01 0.34 1.02 0 0 Z " fill="#F6F5ED" transform="translate(62,20)"/>
<path d="M0 0 C0.33 0 0.66 0 1 0 C0.125 6.875 0.125 6.875 -1 8 C-2.99958364 8.04080783 -5.00045254 8.04254356 -7 8 C-6.67 7.01 -6.34 6.02 -6 5 C-4.35 4.67 -2.7 4.34 -1 4 C-0.67 2.68 -0.34 1.36 0 0 Z " fill="#DECFBE" transform="translate(1093,20)"/>
<path d="M0 0 C1.670625 0.061875 1.670625 0.061875 3.375 0.125 C0.8095406 2.6904594 -1.10186668 2.66546087 -4.625 3.125 C-4.625 4.775 -4.625 6.425 -4.625 8.125 C-4.955 8.125 -5.285 8.125 -5.625 8.125 C-5.75 5.25 -5.75 5.25 -5.625 2.125 C-3.625 0.125 -3.625 0.125 0 0 Z " fill="#A8C5DA" transform="translate(1135.625,17.875)"/>
<path d="M0 0 C1.65 0 3.3 0 5 0 C4.34 1.32 3.68 2.64 3 4 C1.68 4 0.36 4 -1 4 C-0.67 2.68 -0.34 1.36 0 0 Z " fill="#443F43" transform="translate(23,25)"/>
<path d="M0 0 C0.66 0 1.32 0 2 0 C2 1.98 2 3.96 2 6 C0.02 6.99 0.02 6.99 -2 8 C-2.66 7.34 -3.32 6.68 -4 6 C-3.01 5.67 -2.02 5.34 -1 5 C-0.67 3.35 -0.34 1.7 0 0 Z " fill="#DDDAC7" transform="translate(412,21)"/>
<path d="M0 0 C0.66 0 1.32 0 2 0 C2 1.98 2 3.96 2 6 C0.02 6.99 0.02 6.99 -2 8 C-2.66 7.34 -3.32 6.68 -4 6 C-3.01 5.67 -2.02 5.34 -1 5 C-0.67 3.35 -0.34 1.7 0 0 Z " fill="#DDDAC7" transform="translate(214,21)"/>
<path d="M0 0 C0.66 0 1.32 0 2 0 C2 1.98 2 3.96 2 6 C0.02 6.99 0.02 6.99 -2 8 C-2.66 7.34 -3.32 6.68 -4 6 C-3.01 5.67 -2.02 5.34 -1 5 C-0.67 3.35 -0.34 1.7 0 0 Z " fill="#D7D5C4" transform="translate(1191,20)"/>
<path d="M0 0 C0.66 1.32 1.32 2.64 2 4 C1 5 1 5 -2.5625 5.0625 C-3.696875 5.041875 -4.83125 5.02125 -6 5 C-5.67 4.01 -5.34 3.02 -5 2 C-3.35 2.33 -1.7 2.66 0 3 C0 2.01 0 1.02 0 0 Z " fill="#C3D3DD" transform="translate(503,24)"/>
<path d="M0 0 C0.66 1.32 1.32 2.64 2 4 C3.65 4 5.3 4 7 4 C6.67 4.99 6.34 5.98 6 7 C4.33388095 7.042721 2.66617115 7.04063832 1 7 C0 6 0 6 -0.0625 2.9375 C-0.041875 1.968125 -0.02125 0.99875 0 0 Z " fill="#DDE1E0" transform="translate(1131,21)"/>
<path d="M0 0 C0 1.65 0 3.3 0 5 C-2.475 4.01 -2.475 4.01 -5 3 C-5 2.34 -5 1.68 -5 1 C-3 0 -3 0 0 0 Z " fill="#838990" transform="translate(315,24)"/>
<path d="M0 0 C0 1.65 0 3.3 0 5 C-2.475 4.01 -2.475 4.01 -5 3 C-5 2.34 -5 1.68 -5 1 C-3 0 -3 0 0 0 Z " fill="#80868D" transform="translate(1080,23)"/>
<path d="M0 0 C0.33 0 0.66 0 1 0 C1 2.31 1 4.62 1 7 C-0.75 8.125 -0.75 8.125 -3 9 C-5.25 8.125 -5.25 8.125 -7 7 C-5.02 6.34 -3.04 5.68 -1 5 C-0.67 3.35 -0.34 1.7 0 0 Z " fill="#ACCAD7" transform="translate(374,20)"/>
<path d="M0 0 C1.32 0 2.64 0 4 0 C3.67 1.65 3.34 3.3 3 5 C2.01 5 1.02 5 0 5 C0 3.35 0 1.7 0 0 Z " fill="#242D3B" transform="translate(489,17)"/>
<path d="M0 0 C0.66 0 1.32 0 2 0 C2.66 2.64 3.32 5.28 4 8 C3.01 8.495 3.01 8.495 2 9 C0.50178941 5.62902617 0 3.79557881 0 0 Z " fill="#DAD6BF" transform="translate(444,19)"/>
<path d="M0 0 C0 1.65 0 3.3 0 5 C-0.99 5.495 -0.99 5.495 -2 6 C-2 4.35 -2 2.7 -2 1 C-3.65 1 -5.3 1 -7 1 C-3.375 -1.125 -3.375 -1.125 0 0 Z " fill="#DBDED6" transform="translate(483,16)"/>
<path d="M0 0 C0 1.65 0 3.3 0 5 C-2.475 4.01 -2.475 4.01 -5 3 C-5 2.34 -5 1.68 -5 1 C-1.125 0 -1.125 0 0 0 Z " fill="#80848D" transform="translate(275,24)"/>
<path d="M0 0 C0.66 0.33 1.32 0.66 2 1 C2.625 3.5625 2.625 3.5625 3 6 C1.68 6 0.36 6 -1 6 C-0.67 4.02 -0.34 2.04 0 0 Z " fill="#3E3944" transform="translate(186,18)"/>
<path d="M0 0 C1.66611905 -0.042721 3.33382885 -0.04063832 5 0 C6 1 6 1 6.0625 3.5625 C6.041875 4.366875 6.02125 5.17125 6 6 C5.34 5.01 4.68 4.02 4 3 C1.43717258 2.27034634 1.43717258 2.27034634 -1 2 C-0.67 1.34 -0.34 0.68 0 0 Z " fill="#D6DFE1" transform="translate(1087,18)"/>
<path d="M0 0 C1.98 0 3.96 0 6 0 C6 0.99 6 1.98 6 3 C3.69 3 1.38 3 -1 3 C-0.67 2.01 -0.34 1.02 0 0 Z " fill="#E6EAE8" transform="translate(22,18)"/>
<path d="M0 0 C0.66 0.33 1.32 0.66 2 1 C-0.31 3.31 -2.62 5.62 -5 8 C-5 5 -5 5 -2.5 2.3125 C-1.675 1.549375 -0.85 0.78625 0 0 Z " fill="#1060D7" transform="translate(1007,10)"/>
</svg>
